<?xml version="1.0" encoding="UTF-8" standalone="no"?>
<svg
   height="192"
   width="192"
   version="1.1"
   id="svg6"
   sodipodi:docname="104.svg"
   inkscape:version="1.1.1 (3bf5ae0d25, 2021-09-20)"
   xmlns:inkscape="http://www.inkscape.org/namespaces/inkscape"
   xmlns:sodipodi="http://sodipodi.sourceforge.net/DTD/sodipodi-0.dtd"
   xmlns="http://www.w3.org/2000/svg"
   xmlns:svg="http://www.w3.org/2000/svg">
  <defs
     id="defs10" />
  <sodipodi:namedview
     id="namedview8"
     pagecolor="#ffffff"
     bordercolor="#666666"
     borderopacity="1.0"
     inkscape:pageshadow="2"
     inkscape:pageopacity="0.0"
     inkscape:pagecheckerboard="0"
     showgrid="false"
     inkscape:zoom="4.7651355"
     inkscape:cx="95.800003"
     inkscape:cy="95.695074"
     inkscape:window-width="3440"
     inkscape:window-height="1330"
     inkscape:window-x="-12"
     inkscape:window-y="-12"
     inkscape:window-maximized="1"
     inkscape:current-layer="svg6" />
  <g
     transform="translate(-18.55,7.85)"
     id="g4"
     style="display:inline">
    <path
       d="m 210.35,88.15 q 0,39.7 -28.05,67.75 -28.05,28.05 -67.75,28.05 -39.7,0 -67.75,-28.05 -28.05,-28.05 -28.05,-67.75 0,-39.7 28.05,-67.75 28.05,-28.05 67.75,-28.05 39.7,0 67.75,28.05 28.05,28.05 28.05,67.75 m -26.8,0.05 q -0.05,-28.6 -20.2,-48.8 -20.2,-20.2 -48.8,-20.2 -28.6,0 -48.8,20.2 -20.2,20.2 -20.2,48.8 0,28.55 20.2,48.75 20.2,20.2 48.8,20.2 28.6,0 48.8,-20.2 20.15,-20.2 20.2,-48.75"
       fill="#00ff00"
       fill-rule="evenodd"
       stroke="none"
       id="path2" />
  </g>
</svg>
