<?xml version="1.0" encoding="UTF-8" standalone="no"?>
<svg
   height="80"
   width="384"
   version="1.1"
   id="svg62"
   sodipodi:docname="104.svg"
   inkscape:version="1.1.1 (3bf5ae0d25, 2021-09-20)"
   viewBox="0 0 384 80"
   xmlns:inkscape="http://www.inkscape.org/namespaces/inkscape"
   xmlns:sodipodi="http://sodipodi.sourceforge.net/DTD/sodipodi-0.dtd"
   xmlns:xlink="http://www.w3.org/1999/xlink"
   xmlns="http://www.w3.org/2000/svg"
   xmlns:svg="http://www.w3.org/2000/svg">
  <sodipodi:namedview
     id="namedview64"
     pagecolor="#ffffff"
     bordercolor="#666666"
     borderopacity="1.0"
     inkscape:pageshadow="2"
     inkscape:pageopacity="0.0"
     inkscape:pagecheckerboard="0"
     showgrid="false"
     inkscape:zoom="4.2939331"
     inkscape:cx="191.08355"
     inkscape:cy="40.056516"
     inkscape:window-width="3440"
     inkscape:window-height="1330"
     inkscape:window-x="-12"
     inkscape:window-y="-12"
     inkscape:window-maximized="1"
     inkscape:current-layer="svg62" />
  <g
     transform="translate(372,163.55)"
     id="g6">
    <use
       height="80.050003"
       transform="translate(-371.2,-163.55)"
       width="382.39999"
       xlink:href="#shape0"
       id="use2"
       x="0"
       y="0" />
    <use
       height="66.050003"
       transform="translate(-363.5,-156.35)"
       width="366.39999"
       xlink:href="#text0"
       id="use4"
       x="0"
       y="0" />
  </g>
  <defs
     id="defs60">
    <g
       id="shape0"
       transform="translate(371.2,163.55)">
      <path
         d="m -20.75,-129.65 q -1.5,1.85 -1.5,6.2 0,4 1.55,5.85 1.55,1.8 3.95,1.8 2.05,0 3.45,-1.75 1.45,-1.7 1.45,-6.15 0,-4.1 -1.5,-5.95 -1.45,-1.8 -3.55,-1.8 -2.25,0 -3.85,1.8 m -2.4,-7.1 q 1.45,-3.15 3.8,-4.4 3.15,-1.65 6.9,-1.65 7.5,0 11.55,5.7 4.1,5.7 4.1,13.95 0,9.15 -4.45,14.05 -4.45,4.85 -11.3,4.85 -3.25,0 -6,-1.1 -2.7,-1.15 -3.6,-3.1 v 16.95 h -15.2 V -142 h 14.2 v 5.25 m -95.2,-1.85 q 2.15,2.15 3.6,6.6 l -14.15,1.35 q -0.6,-1.95 -1.4,-2.55 -1.6,-1.05 -3.65,-1.05 -2.1,0 -2.9,0.65 -0.85,0.65 -0.85,1.5 0,0.9 0.95,1.35 1.25,0.6 5.6,1.15 6.95,0.8 10.4,2.2 3.45,1.45 5.3,4.15 1.9,2.75 1.9,5.95 0,3.3 -2,6.35 -1.95,3.15 -6.15,4.9 -4.15,1.8 -11.2,1.8 -10,0 -14.3,-2.9 -4.35,-2.9 -5.6,-9.1 l 14.75,-1.3 q 0.9,2.65 2.25,3.6 1.3,0.85 3.6,0.85 2.5,0 3.9,-1.1 0.85,-0.6 0.85,-1.55 0,-1.05 -1.2,-1.65 -0.95,-0.55 -6.2,-1.6 -6.6,-1 -9.5,-2.1 -2.9,-1.1 -4.9,-3.75 -2.05,-2.7 -2.05,-6.2 0,-3.75 2.2,-6.45 2.2,-2.7 5.9,-4 3.75,-1.3 9.9,-1.3 6.45,0 9.65,1 3.2,1.05 5.3,3.2 m 49.15,-3.4 v 20.25 q 0,3.15 1.05,4.3 1.05,1.2 2.95,1.2 2.1,0 3.5,-1.7 1.35,-1.65 1.35,-6.25 V -142 h 15.05 v 36.95 h -14.15 v -5.75 q -1.7,3.4 -4.7,5 -3.05,1.55 -7.45,1.55 -5.95,0 -9.3,-3.55 -3.4,-3.55 -3.4,-10.85 V -142 h 15.1 m -133.8,14.65 h 12 q -0.4,-2.95 -1.95,-4.5 -1.5,-1.55 -4.05,-1.55 -2.85,0 -4.45,1.7 -1.25,2.1 -1.55,4.35 m 17.85,-13.05 q 4.6,2.4 7,7 2.4,4.55 2.4,11.75 v 2.2 h -27.3 q 0.35,2.35 1.2,3.55 2.15,2.3 5,2.3 1.85,0 3.5,-0.9 0.95,-0.55 2.35,-2.35 l 14.5,1.35 q -3.3,6.45 -7.8,8.85 -4.55,2.4 -12.85,2.4 -7.25,0 -11.45,-2.05 -4.2,-2.05 -6.95,-6.6 -2.75,-4.5 -2.75,-10.55 0,-8.65 5.5,-14 5.55,-5.35 15.25,-5.35 7.8,0 12.4,2.4 m 16.3,4.3 -2.3,-10.55 v -8.9 h 15 v 8.85 l -2.3,10.6 h -10.4 m -91.95,-6.7 q 4.4,0 7.1,1.6 2.6,1.65 3.8,4.4 2.65,-3.35 5.45,-4.7 2.75,-1.3 6.8,-1.3 6,0 9.45,3.6 3.4,3.65 3.4,11.1 v 23.05 h -15.05 V -126 q 0,-2.15 -0.85,-3.2 -1.15,-1.55 -2.85,-1.55 -2.05,0 -3.35,1.5 -1.25,1.55 -1.25,5.15 v 19.05 h -15.05 v -20.3 q 0,-2.2 -0.25,-2.95 -0.4,-1.15 -1.25,-1.85 -0.9,-0.65 -2.15,-0.65 -2,0 -3.3,1.5 -1.35,1.6 -1.35,5.4 v 18.85 h -15.05 V -142 h 14.15 v 5.2 q 1.6,-3.15 4.5,-4.6 2.95,-1.4 7.1,-1.4 m -33.7,-2.05 h -15.05 v -10.7 h 15.05 v 10.7 m 0,39.8 h -15.05 V -142 h 15.05 v 36.95 m -68.7,-50.5 h 47.55 v 13.5 h -15.45 v 37 h -16.6 v -37 h -15.5 v -13.5"
         fill="#000000"
         fill-rule="evenodd"
         stroke="none"
         id="path8" />
      <path
         d="m -20.75,-129.65 q -1.5,1.85 -1.5,6.2 0,4 1.55,5.85 1.55,1.8 3.95,1.8 2.05,0 3.45,-1.75 1.45,-1.7 1.45,-6.15 0,-4.1 -1.5,-5.95 -1.45,-1.8 -3.55,-1.8 -2.25,0 -3.85,1.8 m -2.4,-7.1 q 1.45,-3.15 3.8,-4.4 3.15,-1.65 6.9,-1.65 7.5,0 11.55,5.7 4.1,5.7 4.1,13.95 0,9.15 -4.45,14.05 -4.45,4.85 -11.3,4.85 -3.25,0 -6,-1.1 -2.7,-1.15 -3.6,-3.1 v 16.95 h -15.2 V -142 h 14.2 v 5.25 m -95.2,-1.85 q 2.15,2.15 3.6,6.6 l -14.15,1.35 q -0.6,-1.95 -1.4,-2.55 -1.6,-1.05 -3.65,-1.05 -2.1,0 -2.9,0.65 -0.85,0.65 -0.85,1.5 0,0.9 0.95,1.35 1.25,0.6 5.6,1.15 6.95,0.8 10.4,2.2 3.45,1.45 5.3,4.15 1.9,2.75 1.9,5.95 0,3.3 -2,6.35 -1.95,3.15 -6.15,4.9 -4.15,1.8 -11.2,1.8 -10,0 -14.3,-2.9 -4.35,-2.9 -5.6,-9.1 l 14.75,-1.3 q 0.9,2.65 2.25,3.6 1.3,0.85 3.6,0.85 2.5,0 3.9,-1.1 0.85,-0.6 0.85,-1.55 0,-1.05 -1.2,-1.65 -0.95,-0.55 -6.2,-1.6 -6.6,-1 -9.5,-2.1 -2.9,-1.1 -4.9,-3.75 -2.05,-2.7 -2.05,-6.2 0,-3.75 2.2,-6.45 2.2,-2.7 5.9,-4 3.75,-1.3 9.9,-1.3 6.45,0 9.65,1 3.2,1.05 5.3,3.2 m 49.15,-3.4 v 20.25 q 0,3.15 1.05,4.3 1.05,1.2 2.95,1.2 2.1,0 3.5,-1.7 1.35,-1.65 1.35,-6.25 V -142 h 15.05 v 36.95 h -14.15 v -5.75 q -1.7,3.4 -4.7,5 -3.05,1.55 -7.45,1.55 -5.95,0 -9.3,-3.55 -3.4,-3.55 -3.4,-10.85 V -142 h 15.1 m -133.8,14.65 h 12 q -0.4,-2.95 -1.95,-4.5 -1.5,-1.55 -4.05,-1.55 -2.85,0 -4.45,1.7 -1.25,2.1 -1.55,4.35 m 17.85,-13.05 q 4.6,2.4 7,7 2.4,4.55 2.4,11.75 v 2.2 h -27.3 q 0.35,2.35 1.2,3.55 2.15,2.3 5,2.3 1.85,0 3.5,-0.9 0.95,-0.55 2.35,-2.35 l 14.5,1.35 q -3.3,6.45 -7.8,8.85 -4.55,2.4 -12.85,2.4 -7.25,0 -11.45,-2.05 -4.2,-2.05 -6.95,-6.6 -2.75,-4.5 -2.75,-10.55 0,-8.65 5.5,-14 5.55,-5.35 15.25,-5.35 7.8,0 12.4,2.4 m 16.3,4.3 -2.3,-10.55 v -8.9 h 15 v 8.85 l -2.3,10.6 h -10.4 m -91.95,-6.7 q 4.4,0 7.1,1.6 2.6,1.65 3.8,4.4 2.65,-3.35 5.45,-4.7 2.75,-1.3 6.8,-1.3 6,0 9.45,3.6 3.4,3.65 3.4,11.1 v 23.05 h -15.05 V -126 q 0,-2.15 -0.85,-3.2 -1.15,-1.55 -2.85,-1.55 -2.05,0 -3.35,1.5 -1.25,1.55 -1.25,5.15 v 19.05 h -15.05 v -20.3 q 0,-2.2 -0.25,-2.95 -0.4,-1.15 -1.25,-1.85 -0.9,-0.65 -2.15,-0.65 -2,0 -3.3,1.5 -1.35,1.6 -1.35,5.4 v 18.85 h -15.05 V -142 h 14.15 v 5.2 q 1.6,-3.15 4.5,-4.6 2.95,-1.4 7.1,-1.4 m -33.7,-2.05 h -15.05 v -10.7 h 15.05 v 10.7 m 0,39.8 h -15.05 V -142 h 15.05 v 36.95 m -68.7,-50.5 h 47.55 v 13.5 h -15.45 v 37 h -16.6 v -37 h -15.5 v -13.5"
         fill="none"
         stroke="#000000"
         stroke-linecap="round"
         stroke-linejoin="round"
         stroke-width="16"
         id="path10" />
      <path
         d="m -20.75,-129.65 q -1.5,1.85 -1.5,6.2 0,4 1.55,5.85 1.55,1.8 3.95,1.8 2.05,0 3.45,-1.75 1.45,-1.7 1.45,-6.15 0,-4.1 -1.5,-5.95 -1.45,-1.8 -3.55,-1.8 -2.25,0 -3.85,1.8 m -2.4,-7.1 q 1.45,-3.15 3.8,-4.4 3.15,-1.65 6.9,-1.65 7.5,0 11.55,5.7 4.1,5.7 4.1,13.95 0,9.15 -4.45,14.05 -4.45,4.85 -11.3,4.85 -3.25,0 -6,-1.1 -2.7,-1.15 -3.6,-3.1 v 16.95 h -15.2 V -142 h 14.2 v 5.25 m -100.5,-5.05 q 3.2,1.05 5.3,3.2 2.15,2.15 3.6,6.6 l -14.15,1.35 q -0.6,-1.95 -1.4,-2.55 -1.6,-1.05 -3.65,-1.05 -2.1,0 -2.9,0.65 -0.85,0.65 -0.85,1.5 0,0.9 0.95,1.35 1.25,0.6 5.6,1.15 6.95,0.8 10.4,2.2 3.45,1.45 5.3,4.15 1.9,2.75 1.9,5.95 0,3.3 -2,6.35 -1.95,3.15 -6.15,4.9 -4.15,1.8 -11.2,1.8 -10,0 -14.3,-2.9 -4.35,-2.9 -5.6,-9.1 l 14.75,-1.3 q 0.9,2.65 2.25,3.6 1.3,0.85 3.6,0.85 2.5,0 3.9,-1.1 0.85,-0.6 0.85,-1.55 0,-1.05 -1.2,-1.65 -0.95,-0.55 -6.2,-1.6 -6.6,-1 -9.5,-2.1 -2.9,-1.1 -4.9,-3.75 -2.05,-2.7 -2.05,-6.2 0,-3.75 2.2,-6.45 2.2,-2.7 5.9,-4 3.75,-1.3 9.9,-1.3 6.45,0 9.65,1 m 63.3,-0.2 h 15.05 v 36.95 h -14.15 v -5.75 q -1.7,3.4 -4.7,5 -3.05,1.55 -7.45,1.55 -5.95,0 -9.3,-3.55 -3.4,-3.55 -3.4,-10.85 V -142 h 15.1 v 20.25 q 0,3.15 1.05,4.3 1.05,1.2 2.95,1.2 2.1,0 3.5,-1.7 1.35,-1.65 1.35,-6.25 V -142 m -124.8,1.6 q 4.6,2.4 7,7 2.4,4.55 2.4,11.75 v 2.2 h -27.3 q 0.35,2.35 1.2,3.55 2.15,2.3 5,2.3 1.85,0 3.5,-0.9 0.95,-0.55 2.35,-2.35 l 14.5,1.35 q -3.3,6.45 -7.8,8.85 -4.55,2.4 -12.85,2.4 -7.25,0 -11.45,-2.05 -4.2,-2.05 -6.95,-6.6 -2.75,-4.5 -2.75,-10.55 0,-8.65 5.5,-14 5.55,-5.35 15.25,-5.35 7.8,0 12.4,2.4 m -17.85,13.05 h 12 q -0.4,-2.95 -1.95,-4.5 -1.5,-1.55 -4.05,-1.55 -2.85,0 -4.45,1.7 -1.25,2.1 -1.55,4.35 m 46.85,-19.35 -2.3,10.6 h -10.4 l -2.3,-10.55 v -8.9 h 15 v 8.85 m -104.65,3.9 q 4.4,0 7.1,1.6 2.6,1.65 3.8,4.4 2.65,-3.35 5.45,-4.7 2.75,-1.3 6.8,-1.3 6,0 9.45,3.6 3.4,3.65 3.4,11.1 v 23.05 h -15.05 V -126 q 0,-2.15 -0.85,-3.2 -1.15,-1.55 -2.85,-1.55 -2.05,0 -3.35,1.5 -1.25,1.55 -1.25,5.15 v 19.05 h -15.05 v -20.3 q 0,-2.2 -0.25,-2.95 -0.4,-1.15 -1.25,-1.85 -0.9,-0.65 -2.15,-0.65 -2,0 -3.3,1.5 -1.35,1.6 -1.35,5.4 v 18.85 h -15.05 V -142 h 14.15 v 5.2 q 1.6,-3.15 4.5,-4.6 2.95,-1.4 7.1,-1.4 m -33.7,-2.05 h -15.05 v -10.7 h 15.05 v 10.7 m 0,39.8 h -15.05 V -142 h 15.05 v 36.95 m -68.7,-50.5 h 47.55 v 13.5 h -15.45 v 37 h -16.6 v -37 h -15.5 v -13.5"
         fill="#ffffff"
         fill-rule="evenodd"
         stroke="none"
         id="path12" />
      <path
         d="m -20.75,-129.65 q -1.5,1.85 -1.5,6.2 0,4 1.55,5.85 1.55,1.8 3.95,1.8 2.05,0 3.45,-1.75 1.45,-1.7 1.45,-6.15 0,-4.1 -1.5,-5.95 -1.45,-1.8 -3.55,-1.8 -2.25,0 -3.85,1.8 m -2.4,-7.1 q 1.45,-3.15 3.8,-4.4 3.15,-1.65 6.9,-1.65 7.5,0 11.55,5.7 4.1,5.7 4.1,13.95 0,9.15 -4.45,14.05 -4.45,4.85 -11.3,4.85 -3.25,0 -6,-1.1 -2.7,-1.15 -3.6,-3.1 v 16.95 h -15.2 V -142 h 14.2 v 5.25 m -100.5,-5.05 q 3.2,1.05 5.3,3.2 2.15,2.15 3.6,6.6 l -14.15,1.35 q -0.6,-1.95 -1.4,-2.55 -1.6,-1.05 -3.65,-1.05 -2.1,0 -2.9,0.65 -0.85,0.65 -0.85,1.5 0,0.9 0.95,1.35 1.25,0.6 5.6,1.15 6.95,0.8 10.4,2.2 3.45,1.45 5.3,4.15 1.9,2.75 1.9,5.95 0,3.3 -2,6.35 -1.95,3.15 -6.15,4.9 -4.15,1.8 -11.2,1.8 -10,0 -14.3,-2.9 -4.35,-2.9 -5.6,-9.1 l 14.75,-1.3 q 0.9,2.65 2.25,3.6 1.3,0.85 3.6,0.85 2.5,0 3.9,-1.1 0.85,-0.6 0.85,-1.55 0,-1.05 -1.2,-1.65 -0.95,-0.55 -6.2,-1.6 -6.6,-1 -9.5,-2.1 -2.9,-1.1 -4.9,-3.75 -2.05,-2.7 -2.05,-6.2 0,-3.75 2.2,-6.45 2.2,-2.7 5.9,-4 3.75,-1.3 9.9,-1.3 6.45,0 9.65,1 m 63.3,-0.2 h 15.05 v 36.95 h -14.15 v -5.75 q -1.7,3.4 -4.7,5 -3.05,1.55 -7.45,1.55 -5.95,0 -9.3,-3.55 -3.4,-3.55 -3.4,-10.85 V -142 h 15.1 v 20.25 q 0,3.15 1.05,4.3 1.05,1.2 2.95,1.2 2.1,0 3.5,-1.7 1.35,-1.65 1.35,-6.25 V -142 m -124.8,1.6 q 4.6,2.4 7,7 2.4,4.55 2.4,11.75 v 2.2 h -27.3 q 0.35,2.35 1.2,3.55 2.15,2.3 5,2.3 1.85,0 3.5,-0.9 0.95,-0.55 2.35,-2.35 l 14.5,1.35 q -3.3,6.45 -7.8,8.85 -4.55,2.4 -12.85,2.4 -7.25,0 -11.45,-2.05 -4.2,-2.05 -6.95,-6.6 -2.75,-4.5 -2.75,-10.55 0,-8.65 5.5,-14 5.55,-5.35 15.25,-5.35 7.8,0 12.4,2.4 m -17.85,13.05 h 12 q -0.4,-2.95 -1.95,-4.5 -1.5,-1.55 -4.05,-1.55 -2.85,0 -4.45,1.7 -1.25,2.1 -1.55,4.35 m 46.85,-19.35 -2.3,10.6 h -10.4 l -2.3,-10.55 v -8.9 h 15 v 8.85 m -104.65,3.9 q 4.4,0 7.1,1.6 2.6,1.65 3.8,4.4 2.65,-3.35 5.45,-4.7 2.75,-1.3 6.8,-1.3 6,0 9.45,3.6 3.4,3.65 3.4,11.1 v 23.05 h -15.05 V -126 q 0,-2.15 -0.85,-3.2 -1.15,-1.55 -2.85,-1.55 -2.05,0 -3.35,1.5 -1.25,1.55 -1.25,5.15 v 19.05 h -15.05 v -20.3 q 0,-2.2 -0.25,-2.95 -0.4,-1.15 -1.25,-1.85 -0.9,-0.65 -2.15,-0.65 -2,0 -3.3,1.5 -1.35,1.6 -1.35,5.4 v 18.85 h -15.05 V -142 h 14.15 v 5.2 q 1.6,-3.15 4.5,-4.6 2.95,-1.4 7.1,-1.4 m -33.7,-2.05 h -15.05 v -10.7 h 15.05 v 10.7 m 0,39.8 h -15.05 V -142 h 15.05 v 36.95 m -68.7,-50.5 h 47.55 v 13.5 h -15.45 v 37 h -16.6 v -37 h -15.5 v -13.5"
         fill="none"
         stroke="#ffffff"
         stroke-linecap="round"
         stroke-linejoin="round"
         stroke-width="5"
         id="path14" />
    </g>
    <g
       id="text0"
       transform="translate(-1.55,-25.55)">
      <g
         id="g33">
        <use
           fill="#ff0000"
           height="66.050003"
           transform="matrix(0.0684,0,0,0.0684,0,77)"
           width="366.39999"
           xlink:href="#font_Arial_Black_T0"
           id="use17"
           x="0"
           y="0" />
        <use
           fill="#ff0000"
           height="66.050003"
           transform="matrix(0.0684,0,0,0.0684,50.6,77)"
           width="366.39999"
           xlink:href="#font_Arial_Black_i0"
           id="use19"
           x="0"
           y="0" />
        <use
           fill="#ff0000"
           height="66.050003"
           transform="matrix(0.0684,0,0,0.0684,73.95,77)"
           width="366.39999"
           xlink:href="#font_Arial_Black_m0"
           id="use21"
           x="0"
           y="0" />
        <use
           fill="#ff0000"
           height="66.050003"
           transform="matrix(0.0684,0,0,0.0684,144,77)"
           width="366.39999"
           xlink:href="#font_Arial_Black_e0"
           id="use23"
           x="0"
           y="0" />
        <use
           fill="#ff0000"
           height="66.050003"
           transform="matrix(0.0684,0,0,0.0684,190.75,77)"
           width="366.39999"
           xlink:href="#font_Arial_Black__0"
           id="use25"
           x="0"
           y="0" />
        <use
           fill="#ff0000"
           height="66.050003"
           transform="matrix(0.0684,0,0,0.0684,210.25,77)"
           width="366.39999"
           xlink:href="#font_Arial_Black_s0"
           id="use27"
           x="0"
           y="0" />
        <use
           fill="#ff0000"
           height="66.050003"
           transform="matrix(0.0684,0,0,0.0684,276.45,77)"
           width="366.39999"
           xlink:href="#font_Arial_Black_u0"
           id="use29"
           x="0"
           y="0" />
        <use
           fill="#ff0000"
           height="66.050003"
           transform="matrix(0.0684,0,0,0.0684,323.2,77)"
           width="366.39999"
           xlink:href="#font_Arial_Black_p0"
           id="use31"
           x="0"
           y="0" />
      </g>
    </g>
    <g
       id="font_Arial_Black_T0">
      <path
         d="M 23,-738.5 V -541 H 249.5 V 0 H 492 V -541 H 718.5 V -738.5 H 23"
         fill-rule="evenodd"
         stroke="none"
         id="path36" />
    </g>
    <g
       id="font_Arial_Black_i0">
      <path
         d="M 67.5,-540.5 V 0 h 220 v -540.5 h -220 m 0,-198 v 156 h 220 v -156 h -220"
         fill-rule="evenodd"
         stroke="none"
         id="path39" />
    </g>
    <g
       id="font_Arial_Black_m0">
      <path
         d="M 62,-540.5 V 0 h 220.5 v -275.5 q 0,-56 19.5,-79 19,-22.5 48.5,-22.5 18,0 31,10 13,10 18.5,27 3.5,10.5 3.5,43 V 0 H 624 v -278.5 q 0,-53 18.5,-75.5 19,-22 49,-22 24.5,0 41.5,22.5 12,15.5 12,47 V 0 h 220.5 v -337 q 0,-109.5 -50,-162.5 -50,-53 -138,-53 -59,0 -99.5,19.5 -41,19.5 -79.5,68.5 -17.5,-40.5 -56,-64.5 -39,-23.5 -104,-23.5 -60.5,0 -103.5,21 -42.5,21 -66,67 v -76 H 62"
         fill-rule="evenodd"
         stroke="none"
         id="path42" />
    </g>
    <g
       id="font_Arial_Black_e0">
      <path
         d="M 435,-326 H 259.5 q 4.5,-33 23,-63.5 23.5,-25 65,-25 37,0 59.5,22.5 22.5,22.5 28,66 m 223.5,115.5 V -243 q 0,-105 -35,-172 -35.5,-67 -102.5,-102 -67.5,-35.5 -181.5,-35.5 -142,0 -223,78.5 -81,78.5 -81,204.5 0,89 40.5,155 40.5,66 102,96 61,30.5 167,30.5 122,0 188,-35.5 66,-35 114,-129.5 l -211.5,-19.5 q -21,26 -35,34 -24,13.5 -51,13.5 -41.5,0 -73,-34 -12.5,-17.5 -17.5,-51.5 h 399.5"
         fill-rule="evenodd"
         stroke="none"
         id="path45" />
    </g>
    <g
       id="font_Arial_Black__0">
      <path
         d="m 41.5,-738.5 v 130 l 34,154 h 152 l 33.5,-155 v -129 H 41.5"
         fill-rule="evenodd"
         stroke="none"
         id="path48" />
    </g>
    <g
       id="font_Arial_Black_s0">
      <path
         d="m 25,-163.5 v 0 Q 43,-73 106.5,-30.5 170,12 316,12 q 103,0 164,-26.5 61,-26 90,-71.5 29,-45 29,-93 0,-47 -27.5,-87 -27.5,-40 -78,-61 -50.5,-20.5 -152,-32 -63.5,-8 -82,-17 -13.5,-6.5 -13.5,-20 0,-12 12,-21.5 12,-9.5 42.5,-9.5 30,0 53.5,15.5 12,8.5 20.5,37 l 207,-20 q -21,-65 -52.5,-96.5 -31,-31.5 -78,-46.5 -46.5,-15 -141,-15 -90,0 -144.5,19 -54.5,19.5 -86.5,59 -32,39.5 -32,94.5 0,51 29.5,90 29.5,39 72,55 42.5,16.5 139,31 76.5,15.5 91,23 17,9 17,24.5 0,14 -12.5,23 -20,16 -57,16 -33.5,0 -52.5,-13 Q 254,-144 240.5,-183 L 25,-163.5"
         fill-rule="evenodd"
         stroke="none"
         id="path51" />
    </g>
    <g
       id="font_Arial_Black_u0">
      <path
         d="M 629,0 V -540.5 H 409 V -280 q 0,67.5 -20,91.5 -20,24.5 -51,24.5 -28,0 -43,-17.5 -15.5,-17 -15.5,-62.5 V -540.5 H 58.5 V -199 q 0,106.5 49.5,159 49.5,52 136.5,52 64,0 108.5,-23 44.5,-23.5 69,-73 V 0 h 207"
         fill-rule="evenodd"
         stroke="none"
         id="path54" />
    </g>
    <g
       id="font_Arial_Black_p0">
      <path
         d="m 282,-269 v 0 q 0,-63.5 22.5,-90.5 23,-26.5 56,-26.5 30.5,0 52,26.5 22,26.5 22,86.5 0,65 -21,90.5 -20.5,25.5 -50.5,25.5 -35,0 -58,-26.5 -23,-27 -23,-85.5 M 61.5,198 h 222 V -50 q 13.5,29 53,45.5 40,16.5 88,16.5 100,0 165,-71.5 65,-71.5 65,-205.5 0,-120.5 -59.5,-204 -59.5,-83.5 -169.5,-83.5 -55,0 -101,24.5 -34,18 -55.5,64.5 v -77 H 61.5 V 198"
         fill-rule="evenodd"
         stroke="none"
         id="path57" />
    </g>
  </defs>
  <g
     transform="matrix(0.8358127,0,0,0.8358127,111.13504,-48.393555)"
     id="g12"
     style="display:none">
    <path
       d="m 195.6,65.4 v 65.85 H 176.4 L 151.75,95.1 v 36.15 H 132.6 V 65.4 h 19.05 l 24.75,36.45 V 65.4 h 19.2 m -77.7,0 v 65.85 H 97.5 V 65.4 h 20.4 m -100.7,0 7,36.9 10.2,-36.9 h 19.25 l 10.2,36.85 6.95,-36.85 h 19.25 l -14.5,65.85 H 55.6 L 44.05,89.8 32.5,131.25 H 12.55 L -2.1,65.4 h 19.3"
       fill="#ff0000"
       fill-rule="evenodd"
       stroke="none"
       id="path2" />
    <path
       d="m 195.6,65.4 v 65.85 H 176.4 L 151.75,95.1 v 36.15 H 132.6 V 65.4 h 19.05 l 24.75,36.45 V 65.4 h 19.2 m -77.7,0 v 65.85 H 97.5 V 65.4 h 20.4"
       fill="none"
       stroke="#000000"
       stroke-linecap="round"
       stroke-linejoin="round"
       stroke-width="15"
       id="path4" />
    <path
       d="m 17.2,65.4 7,36.9 10.2,-36.9 h 19.25 l 10.2,36.85 6.95,-36.85 h 19.25 l -14.5,65.85 H 55.6 L 44.05,89.8 32.5,131.25 H 12.55 L -2.1,65.4 h 19.3"
       fill="none"
       stroke="#000000"
       stroke-linecap="round"
       stroke-linejoin="round"
       stroke-width="15"
       id="path6" />
    <path
       d="m 195.6,65.4 v 65.85 H 176.4 L 151.75,95.1 v 36.15 H 132.6 V 65.4 h 19.05 l 24.75,36.45 V 65.4 h 19.2 m -77.7,0 v 65.85 H 97.5 V 65.4 h 20.4 m -100.7,0 7,36.9 10.2,-36.9 h 19.25 l 10.2,36.85 6.95,-36.85 h 19.25 l -14.5,65.85 H 55.6 L 44.05,89.8 32.5,131.25 H 12.55 L -2.1,65.4 h 19.3"
       fill="none"
       stroke="#ffffff"
       stroke-linecap="round"
       stroke-linejoin="round"
       stroke-width="5"
       id="path8-6" />
    <path
       d="m 195.6,65.4 v 65.85 H 176.4 L 151.75,95.1 v 36.15 H 132.6 V 65.4 h 19.05 l 24.75,36.45 V 65.4 h 19.2 m -77.7,0 v 65.85 H 97.5 V 65.4 h 20.4 m -100.7,0 7,36.9 10.2,-36.9 h 19.25 l 10.2,36.85 6.95,-36.85 h 19.25 l -14.5,65.85 H 55.6 L 44.05,89.8 32.5,131.25 H 12.55 L -2.1,65.4 h 19.3"
       fill="#ff0000"
       fill-rule="evenodd"
       stroke="none"
       id="path10-3"
       style="fill:#00ff00;fill-opacity:1" />
  </g>
</svg>
