<?xml version="1.0" encoding="UTF-8" standalone="no"?>
<svg xmlns:xlink="http://www.w3.org/1999/xlink" height="51.9px" width="73.1px" xmlns="http://www.w3.org/2000/svg">
  <g transform="matrix(1.0, 0.0, 0.0, 1.0, 36.55, 25.95)">
    <path d="M32.8 -12.4 L33.8 -11.95 Q34.5 -11.5 34.75 -10.45 34.95 -9.55 34.75 -8.65 34.25 -6.85 33.45 -5.75 L34.4 -4.55 Q35.4 -2.35 34.4 -1.25 L34.35 -1.2 35.25 0.65 Q35.65 1.8 35.5 2.75 L35.0 3.45 Q34.95 4.7 34.1 5.5 33.5 5.95 31.85 6.0 31.3 4.75 30.75 4.2 30.35 3.6 29.1 3.0 L27.45 1.8 27.15 1.55 26.85 1.25 25.6 -0.75 25.4 0.1 24.95 0.8 Q24.45 0.75 24.1 0.15 L23.7 -0.95 Q22.9 -4.0 23.0 -8.7 25.5 -10.8 25.75 -14.25 25.85 -15.85 26.65 -16.5 L28.0 -16.6 29.4 -16.5 Q30.9 -16.85 31.5 -16.1 L31.8 -14.95 31.7 -13.75 31.85 -12.9 32.8 -12.4" fill="#0000ff" fill-rule="evenodd" stroke="none"/>
    <path d="M24.1 -4.1 Q24.95 0.85 23.95 5.8 22.95 10.5 20.35 14.45 17.7 18.4 13.85 21.05 9.85 23.75 5.1 24.6 L-4.3 24.3 Q-8.8 23.15 -12.65 20.3 -16.5 17.5 -19.05 13.4 -21.7 9.15 -22.55 4.15 -23.45 -0.85 -22.4 -5.75 -21.45 -10.45 -18.8 -14.45 -16.2 -18.4 -12.35 -21.05 -8.35 -23.75 -3.6 -24.55 L5.85 -24.25 Q10.3 -23.15 14.15 -20.3 17.95 -17.5 20.55 -13.35 23.2 -9.15 24.1 -4.1" fill="#0000ff" fill-rule="evenodd" stroke="none"/>
    <path d="M-27.3 -3.6 Q-24.85 0.05 -22.8 1.15 L-22.0 0.4 Q-20.75 1.15 -20.7 3.55 L-20.7 3.65 -20.7 5.4 -20.9 7.15 Q-20.95 8.3 -21.9 8.7 L-22.25 8.95 -22.5 9.3 Q-23.95 12.25 -25.8 14.45 -27.65 16.5 -29.35 17.55 L-30.85 17.75 -31.2 17.25 Q-31.7 16.25 -31.5 14.2 -32.75 12.6 -33.0 11.25 -33.0 10.45 -32.45 8.6 -32.0 6.9 -32.2 5.85 L-32.65 4.25 -33.3 2.7 Q-33.95 1.4 -34.0 -0.2 -34.0 -1.75 -33.45 -3.1 L-33.45 -3.2 -34.7 -3.75 Q-35.4 -4.15 -35.55 -4.8 L-35.45 -5.2 Q-35.0 -6.15 -33.0 -6.65 -29.65 -7.2 -27.3 -3.6" fill="#0000ff" fill-rule="evenodd" stroke="none"/>
    <path d="M-31.3 13.3 L-30.95 11.8 -30.0 11.1 -28.85 10.7 Q-28.5 10.4 -28.6 9.75 L-28.9 9.1 -29.25 8.6 -30.1 7.25 -29.7 6.1 Q-29.2 5.4 -29.25 5.05 L-30.05 3.65 Q-31.95 0.35 -32.4 -0.1 L-32.2 -0.5 -31.4 -1.35 Q-30.95 -1.9 -31.15 -2.5 L-32.7 -3.05 -32.75 -3.0 Q-33.3 -1.55 -33.3 -0.25 L-33.25 1.05 -32.85 2.2 -32.35 3.3 -31.7 5.25 Q-31.35 6.3 -31.55 7.6 L-32.2 10.85 Q-32.3 12.2 -31.3 13.3" fill="#00003e" fill-rule="evenodd" stroke="none"/>
    <path d="M31.8 -14.95 L31.7 -13.75 31.85 -12.9 32.8 -12.4 33.8 -11.95 Q34.5 -11.5 34.75 -10.45 34.95 -9.55 34.75 -8.65 34.25 -6.85 33.45 -5.75 L34.4 -4.55 Q35.4 -2.35 34.4 -1.25 L35.25 0.65 Q35.65 1.8 35.5 2.75 L35.0 3.45 Q34.95 4.7 34.1 5.5 33.5 5.95 31.85 6.0 31.3 4.75 30.75 4.2 30.35 3.6 29.1 3.0 L27.45 1.8 27.15 1.55 26.85 1.25 25.6 -0.75 25.4 0.1 24.95 0.8 24.5 0.65 Q24.45 9.45 19.05 16.25 13.55 23.1 5.1 24.6 -3.45 26.1 -10.95 21.45 -18.45 16.85 -21.45 8.4 L-21.9 8.7 -22.25 8.95 -22.5 9.3 Q-23.95 12.25 -25.8 14.45 -27.65 16.5 -29.35 17.55 L-30.85 17.75 -31.2 17.25 Q-31.7 16.25 -31.5 14.2 -32.75 12.6 -33.0 11.25 -33.0 10.45 -32.45 8.6 -32.0 6.9 -32.2 5.85 L-32.65 4.25 -33.3 2.7 Q-33.95 1.4 -34.0 -0.2 -34.0 -1.75 -33.45 -3.1 L-33.45 -3.2 -34.7 -3.75 Q-35.4 -4.15 -35.55 -4.8 L-35.45 -5.2 Q-35.0 -6.15 -33.0 -6.65 -29.65 -7.2 -27.3 -3.6 -24.9 -0.05 -22.9 1.1 -23.2 -3.5 -21.85 -7.85 -20.6 -12.1 -18.0 -15.6 -15.4 -19.15 -11.75 -21.4 -8.0 -23.8 -3.6 -24.55 4.95 -26.1 12.55 -21.4 20.05 -16.75 23.05 -8.2 L23.0 -8.7 Q25.5 -10.8 25.75 -14.25 25.85 -15.85 26.65 -16.5 L28.0 -16.6 29.4 -16.5 Q30.9 -16.85 31.5 -16.1 L31.8 -14.95 Z" fill="none" stroke="#000099" stroke-linecap="round" stroke-linejoin="round" stroke-width="2.0"/>
    <path d="M20.9 -2.75 Q21.65 1.4 20.85 5.55 20.1 9.45 18.0 12.8 15.95 16.1 12.9 18.3 9.7 20.5 5.95 21.2 0.5 22.15 -4.7 19.75 -9.7 17.35 -12.95 12.5 -9.8 14.95 -5.95 15.95 L2.05 16.25 Q5.8 15.55 9.0 13.45 12.1 11.45 14.25 8.45 16.35 5.35 17.2 1.8 18.05 -1.95 17.35 -5.7 16.5 -10.45 13.55 -14.15 10.65 -17.75 6.5 -19.65 11.85 -18.1 15.8 -13.6 19.75 -9.0 20.9 -2.75" fill="#ffffff" fill-opacity="0.7019608" fill-rule="evenodd" stroke="none"/>
  </g>
</svg>
