<?xml version="1.0" encoding="UTF-8" standalone="no"?>
<svg xmlns:xlink="http://www.w3.org/1999/xlink" height="51.9px" width="73.1px" xmlns="http://www.w3.org/2000/svg">
  <g transform="matrix(1.0, 0.0, 0.0, 1.0, 36.55, 25.9)">
    <path d="M31.9 -12.85 Q32.15 -12.5 32.85 -12.35 L33.85 -11.9 Q34.5 -11.45 34.8 -10.4 35.0 -9.5 34.75 -8.6 34.25 -6.75 33.5 -5.7 L34.4 -4.5 Q35.35 -2.3 34.4 -1.2 L34.35 -1.15 35.25 0.7 Q35.7 1.85 35.5 2.8 L35.0 3.5 Q34.95 4.75 34.15 5.55 33.5 6.0 31.9 6.05 L30.8 4.25 29.15 3.0 Q27.8 2.35 27.45 1.85 L27.45 1.8 27.15 1.6 26.0 0.0 25.6 -0.7 25.4 0.1 25.0 0.8 Q24.45 0.8 24.15 0.2 L23.7 -0.9 Q22.95 -3.85 23.05 -8.65 25.55 -10.8 25.8 -14.2 25.9 -15.85 26.7 -16.5 L28.05 -16.55 29.4 -16.5 Q30.9 -16.85 31.55 -16.05 L31.85 -14.9 31.75 -13.7 31.9 -12.85" fill="#00ff00" fill-rule="evenodd" stroke="none"/>
    <path d="M24.1 -4.1 Q24.95 0.9 23.95 5.8 23.0 10.5 20.35 14.5 17.75 18.45 13.85 21.1 9.9 23.75 5.15 24.65 L-4.3 24.3 Q-8.8 23.2 -12.65 20.35 -16.45 17.55 -19.0 13.45 -21.7 9.2 -22.55 4.2 -23.45 -0.8 -22.4 -5.7 -21.45 -10.45 -18.8 -14.4 -16.2 -18.35 -12.3 -21.0 -8.35 -23.7 -3.6 -24.55 L5.85 -24.2 Q10.3 -23.1 14.2 -20.25 18.0 -17.45 20.6 -13.35 23.2 -9.1 24.1 -4.1" fill="#00ff00" fill-rule="evenodd" stroke="none"/>
    <path d="M-27.3 -3.55 Q-24.85 0.1 -22.75 1.2 L-22.0 0.4 Q-20.75 1.2 -20.65 3.55 L-20.7 3.7 -20.7 5.45 -20.85 7.2 Q-20.9 8.3 -21.85 8.7 L-22.2 8.95 -22.5 9.3 Q-24.0 12.4 -25.75 14.45 -27.65 16.55 -29.35 17.6 L-30.85 17.8 -31.2 17.3 Q-31.7 16.25 -31.45 14.25 -32.7 12.65 -32.95 11.3 L-32.4 8.65 Q-31.95 7.0 -32.15 5.9 L-32.65 4.3 -33.25 2.75 Q-34.7 0.15 -33.45 -3.05 L-33.45 -3.15 -34.7 -3.7 Q-35.4 -4.1 -35.55 -4.75 L-35.45 -5.15 Q-34.95 -6.1 -33.0 -6.6 -29.65 -7.15 -27.3 -3.55" fill="#00ff00" fill-rule="evenodd" stroke="none"/>
    <path d="M-29.95 11.15 L-28.85 10.75 Q-28.45 10.4 -28.6 9.8 L-28.9 9.15 -29.25 8.6 -30.1 7.3 -29.7 6.15 -29.2 5.1 -30.0 3.7 -32.4 -0.05 -32.2 -0.45 -31.35 -1.3 Q-30.95 -1.85 -31.15 -2.45 L-32.7 -3.0 -32.75 -2.95 Q-33.25 -1.45 -33.25 -0.2 L-33.25 1.1 -32.85 2.25 -32.35 3.35 -31.7 5.3 Q-31.35 6.3 -31.55 7.65 L-32.05 9.9 -32.2 10.9 Q-32.25 12.2 -31.3 13.35 L-30.95 11.85 Q-30.7 11.4 -29.95 11.15" fill="#006500" fill-rule="evenodd" stroke="none"/>
    <path d="M31.75 -13.7 L31.9 -12.85 Q32.15 -12.5 32.85 -12.35 L33.85 -11.9 Q34.5 -11.45 34.8 -10.4 35.0 -9.5 34.75 -8.6 34.25 -6.75 33.5 -5.7 L34.4 -4.5 Q35.35 -2.3 34.4 -1.2 L35.25 0.7 Q35.7 1.85 35.5 2.8 L35.0 3.5 Q34.95 4.75 34.15 5.55 33.5 6.0 31.9 6.05 L30.8 4.25 29.15 3.0 Q27.8 2.35 27.45 1.85 L27.15 1.6 26.0 0.0 25.6 -0.7 25.4 0.1 25.0 0.8 24.5 0.65 Q24.45 9.5 19.1 16.25 13.6 23.1 5.15 24.65 -3.4 26.15 -10.95 21.5 -18.4 16.9 -21.4 8.45 L-21.85 8.7 -22.2 8.95 -22.5 9.3 Q-24.0 12.4 -25.75 14.45 -27.65 16.55 -29.35 17.6 L-30.85 17.8 -31.2 17.3 Q-31.7 16.25 -31.45 14.25 -32.7 12.65 -32.95 11.3 L-32.4 8.65 Q-31.95 7.0 -32.15 5.9 L-32.65 4.3 -33.25 2.75 Q-34.7 0.15 -33.45 -3.05 L-33.45 -3.15 -34.7 -3.7 Q-35.4 -4.1 -35.55 -4.75 L-35.45 -5.15 Q-34.95 -6.1 -33.0 -6.6 -29.65 -7.15 -27.3 -3.55 -24.9 -0.05 -22.9 1.1 -23.2 -3.5 -21.85 -7.85 -20.6 -12.05 -17.95 -15.55 -15.35 -19.1 -11.75 -21.35 -8.0 -23.75 -3.6 -24.55 5.0 -26.05 12.6 -21.35 20.05 -16.7 23.05 -8.15 L23.05 -8.65 Q25.55 -10.8 25.8 -14.2 25.9 -15.85 26.7 -16.5 L28.05 -16.55 29.4 -16.5 Q30.9 -16.85 31.55 -16.05 L31.85 -14.9 31.75 -13.7 Z" fill="none" stroke="#00cc00" stroke-linecap="round" stroke-linejoin="round" stroke-width="2.0"/>
    <path d="M20.9 -2.75 Q21.65 1.45 20.9 5.55 20.15 9.5 18.05 12.85 16.0 16.15 12.9 18.35 9.75 20.55 5.95 21.25 0.5 22.2 -4.65 19.75 -9.65 17.4 -12.9 12.55 -9.75 15.0 -5.95 16.0 L2.05 16.25 Q5.85 15.55 9.05 13.5 12.15 11.5 14.25 8.5 16.35 5.4 17.2 1.85 18.05 -1.9 17.35 -5.65 16.5 -10.4 13.6 -14.1 10.7 -17.75 6.5 -19.6 11.9 -18.05 15.85 -13.55 19.8 -8.95 20.9 -2.75" fill="#ffffff" fill-opacity="0.7019608" fill-rule="evenodd" stroke="none"/>
  </g>
</svg>
