<?xml version="1.0" encoding="UTF-8" standalone="no"?>
<svg xmlns:xlink="http://www.w3.org/1999/xlink" height="51.9px" width="73.1px" xmlns="http://www.w3.org/2000/svg">
  <g transform="matrix(1.0, 0.0, 0.0, 1.0, 36.55, 25.95)">
    <path d="M31.85 -12.9 Q32.1 -12.55 32.8 -12.35 33.55 -12.2 33.8 -11.9 34.45 -11.5 34.7 -10.45 34.95 -9.55 34.7 -8.65 34.2 -6.85 33.45 -5.75 L34.35 -4.55 Q35.35 -2.35 34.4 -1.25 L34.35 -1.15 35.2 0.7 Q35.65 1.8 35.5 2.8 L34.95 3.5 Q34.9 4.75 34.1 5.5 33.45 5.95 31.85 6.05 31.3 4.8 30.75 4.25 30.3 3.6 29.1 3.0 27.8 2.3 27.4 1.8 L27.45 1.8 27.1 1.55 25.95 -0.05 25.6 -0.75 25.55 -0.75 25.35 0.1 24.95 0.8 Q24.4 0.75 24.1 0.15 L23.7 -0.95 Q22.9 -4.0 23.0 -8.7 25.5 -10.8 25.75 -14.25 25.8 -15.85 26.6 -16.5 L28.0 -16.6 29.35 -16.5 Q30.85 -16.85 31.5 -16.05 L31.8 -14.95 31.7 -13.75 31.85 -12.9" fill="#ff0000" fill-rule="evenodd" stroke="none"/>
    <path d="M24.05 -4.1 Q24.95 0.85 23.9 5.8 22.95 10.5 20.3 14.45 17.65 18.4 13.85 21.05 9.85 23.75 5.1 24.6 L-4.35 24.3 Q-8.85 23.15 -12.65 20.35 -16.5 17.5 -19.05 13.4 -21.7 9.15 -22.6 4.15 -23.45 -0.85 -22.45 -5.75 -21.5 -10.45 -18.85 -14.45 -16.25 -18.4 -12.35 -21.0 -8.4 -23.75 -3.6 -24.55 L5.8 -24.25 Q10.3 -23.15 14.15 -20.3 17.95 -17.5 20.5 -13.35 23.15 -9.15 24.05 -4.1" fill="#ff0000" fill-rule="evenodd" stroke="none"/>
    <path d="M-33.5 -3.2 L-34.7 -3.75 Q-35.4 -4.15 -35.55 -4.75 L-35.5 -5.2 Q-35.0 -6.15 -33.05 -6.65 -29.65 -7.2 -27.3 -3.6 -24.85 0.05 -22.8 1.15 L-22.0 0.4 Q-20.8 1.15 -20.7 3.55 L-20.7 3.65 -20.75 5.4 -20.9 7.15 Q-21.0 8.3 -21.9 8.7 L-22.25 8.95 -22.55 9.3 Q-24.0 12.3 -25.8 14.45 -27.7 16.5 -29.4 17.55 L-30.9 17.75 -31.25 17.25 Q-31.7 16.25 -31.5 14.2 -32.8 12.6 -33.0 11.25 -33.05 10.45 -32.45 8.6 -32.0 6.9 -32.2 5.85 L-32.7 4.25 -33.3 2.7 Q-34.0 1.4 -34.0 -0.2 -34.05 -1.75 -33.45 -3.1 L-33.5 -3.2" fill="#ff0000" fill-rule="evenodd" stroke="none"/>
    <path d="M-32.25 10.85 Q-32.3 12.2 -31.3 13.35 L-30.95 11.8 -30.0 11.15 -28.9 10.7 Q-28.5 10.4 -28.6 9.75 L-28.95 9.1 -29.3 8.6 -30.15 7.3 -29.7 6.1 -29.25 5.05 -30.05 3.65 -32.45 -0.1 -32.25 -0.45 -31.4 -1.3 Q-30.95 -1.9 -31.2 -2.45 L-32.7 -3.0 -32.75 -3.0 Q-33.3 -1.5 -33.3 -0.25 L-33.3 1.1 -32.85 2.2 -32.4 3.35 -31.75 5.25 Q-31.35 6.3 -31.55 7.6 L-32.25 10.85" fill="#752605" fill-rule="evenodd" stroke="none"/>
    <path d="M31.85 -12.9 Q32.1 -12.55 32.8 -12.35 33.55 -12.2 33.8 -11.9 34.45 -11.5 34.7 -10.45 34.95 -9.55 34.7 -8.65 34.2 -6.85 33.45 -5.75 L34.35 -4.55 Q35.35 -2.35 34.4 -1.25 L35.25 0.7 Q35.65 1.85 35.5 2.8 L34.95 3.5 Q34.9 4.75 34.1 5.5 33.45 5.95 31.85 6.05 31.3 4.8 30.75 4.25 30.3 3.6 29.1 3.0 27.8 2.3 27.4 1.8 L27.1 1.55 25.95 -0.05 25.6 -0.75 25.4 0.1 24.95 0.8 24.45 0.6 Q24.45 9.45 19.0 16.25 13.55 23.1 5.1 24.6 -3.45 26.1 -11.0 21.45 -18.5 16.85 -21.45 8.4 L-21.9 8.7 -22.25 8.95 -22.55 9.3 Q-24.0 12.3 -25.8 14.45 -27.7 16.5 -29.4 17.55 L-30.9 17.75 -31.25 17.25 Q-31.7 16.25 -31.5 14.2 -32.8 12.6 -33.0 11.25 -33.05 10.45 -32.45 8.6 -32.0 6.9 -32.2 5.85 L-32.7 4.25 -33.3 2.7 Q-34.0 1.4 -34.0 -0.2 -34.05 -1.75 -33.45 -3.1 L-33.5 -3.2 -34.7 -3.75 Q-35.4 -4.15 -35.55 -4.75 L-35.5 -5.2 Q-35.0 -6.15 -33.05 -6.65 -29.65 -7.2 -27.3 -3.6 -24.9 -0.05 -22.95 1.05 -23.25 -3.5 -21.9 -7.85 -20.65 -12.1 -18.0 -15.6 -15.4 -19.1 -11.75 -21.4 -8.0 -23.8 -3.6 -24.55 4.95 -26.1 12.55 -21.35 20.0 -16.7 23.0 -8.2 L23.0 -8.7 Q25.5 -10.8 25.75 -14.25 25.8 -15.85 26.6 -16.5 L28.0 -16.6 29.35 -16.5 Q30.85 -16.85 31.5 -16.05 L31.8 -14.95 31.7 -13.75 31.85 -12.9 Z" fill="none" stroke="#ff0033" stroke-linecap="round" stroke-linejoin="round" stroke-width="2.0"/>
    <path d="M20.85 -2.75 Q21.6 1.4 20.8 5.55 20.05 9.45 18.0 12.8 15.9 16.1 12.85 18.3 9.7 20.5 5.9 21.2 0.45 22.15 -4.7 19.75 -9.75 17.35 -12.95 12.55 -9.85 14.95 -6.0 15.95 L2.0 16.25 Q5.8 15.55 9.0 13.5 12.1 11.45 14.2 8.45 16.35 5.35 17.15 1.8 18.0 -1.95 17.35 -5.7 16.5 -10.45 13.55 -14.15 10.65 -17.75 6.45 -19.65 11.85 -18.1 15.75 -13.6 19.75 -9.0 20.85 -2.75" fill="#ffffff" fill-opacity="0.7019608" fill-rule="evenodd" stroke="none"/>
  </g>
</svg>
