<?xml version="1.0" encoding="UTF-8" standalone="no"?>
<svg
   height="162"
   width="190"
   version="1.1"
   id="svg22"
   sodipodi:docname="129.svg"
   inkscape:version="1.1.1 (3bf5ae0d25, 2021-09-20)"
   xmlns:inkscape="http://www.inkscape.org/namespaces/inkscape"
   xmlns:sodipodi="http://sodipodi.sourceforge.net/DTD/sodipodi-0.dtd"
   xmlns="http://www.w3.org/2000/svg"
   xmlns:svg="http://www.w3.org/2000/svg">
  <defs
     id="defs26" />
  <sodipodi:namedview
     id="namedview24"
     pagecolor="#ffffff"
     bordercolor="#666666"
     borderopacity="1.0"
     inkscape:pageshadow="2"
     inkscape:pageopacity="0.0"
     inkscape:pagecheckerboard="0"
     showgrid="false"
     inkscape:zoom="5.7894738"
     inkscape:cx="94.222725"
     inkscape:cy="92.581816"
     inkscape:window-width="3440"
     inkscape:window-height="1330"
     inkscape:window-x="-12"
     inkscape:window-y="-12"
     inkscape:window-maximized="1"
     inkscape:current-layer="svg22" />
  <g
     transform="translate(94.166836,83.158217)"
     id="g20">
    <path
       d="M 17.95,41.15 Q 9,38.1 1.6,28.3 -5.1,19.65 -10.75,1.15 L 9.7,-6.35 q 1.5,18.35 14.95,32.6 10.55,6.05 5.7,13.65 -3.5,3.6 -12.4,1.25"
       fill="#cccccc"
       fill-rule="evenodd"
       stroke="none"
       id="path2" />
    <path
       d="M 17.95,41.15 Q 26.85,43.5 30.35,39.9 35.2,32.3 24.65,26.25 11.2,12 9.7,-6.35 l -20.45,7.5 Q -5.1,19.65 1.6,28.3 9,38.1 17.95,41.15 Z"
       fill="none"
       stroke="#333333"
       stroke-linecap="round"
       stroke-linejoin="round"
       stroke-width="2"
       id="path4" />
    <path
       d="m -10.2,3.75 q -1.45,8.55 6.3,19.4 7.75,10.8 2.9,17.8 -7.15,9.2 -18.2,-0.7 -8.15,-6.35 -13.75,-25.45 -5.65,-19.05 9.7,-45.45 l 29.2,4.8 q -7.6,10.15 -11.1,15.6 -3.55,5.4 -5.05,14"
       fill="#cccccc"
       fill-rule="evenodd"
       stroke="none"
       id="path6" />
    <path
       d="m -10.2,3.75 q 1.5,-8.6 5.05,-14 3.5,-5.45 11.1,-15.6 l -29.2,-4.8 q -15.35,26.4 -9.7,45.45 5.6,19.1 13.75,25.45 11.05,9.9 18.2,0.7 4.85,-7 -2.9,-17.8 -7.75,-10.85 -6.3,-19.4 z"
       fill="none"
       stroke="#333333"
       stroke-linecap="round"
       stroke-linejoin="round"
       stroke-width="2"
       id="path8" />
    <path
       d="m -25.25,8.35 q -2.35,5 -1.55,13.35 0.75,8.35 5.5,17.4 4.75,9 -0.8,15.2 -10.2,7.2 -17.85,-6.1 -6.2,-10.45 -10.65,-25.45 -4.5,-15 14.25,-36.95 l 25.6,5.3 Q -22.9,3.35 -25.25,8.35"
       fill="#cccccc"
       fill-rule="evenodd"
       stroke="none"
       id="path10" />
    <path
       d="m -25.25,8.35 q 2.35,-5 14.5,-17.25 l -25.6,-5.3 Q -55.1,7.75 -50.6,22.75 q 4.45,15 10.65,25.45 7.65,13.3 17.85,6.1 5.55,-6.2 0.8,-15.2 -4.75,-9.05 -5.5,-17.4 -0.8,-8.35 1.55,-13.35 z"
       fill="none"
       stroke="#666666"
       stroke-linecap="round"
       stroke-linejoin="round"
       stroke-width="2"
       id="path12" />
    <path
       d="m -85.85,64.3 q -6.2,-1.2 -7.1,-8.7 -1.15,-9.2 3.75,-17.15 l 9,-14.35 q 4.4,-6.9 8.85,-12.05 4.4,-5.2 12.35,-13.35 7.9,-8.2 12.75,-12.05 4.8,-3.85 10.65,-9.65 5.55,-5.5 10.6,-11.5 3.85,-4.65 9.4,-7.05 8.05,-3.55 16.8,-5.4 l 16.85,-3.15 q 8.85,-1.5 16.55,-5.75 4.8,-2.6 6.85,-7.8 3.25,-8.35 10.3,-13.15 2.65,-1.75 5.75,-0.55 7.7,2.8 12.7,9.35 5,6.4 8.8,13.7 3.85,7.35 6.75,15.05 2.85,7.55 5.85,14.95 l 1.5,3.65 q 0.45,6.85 -2.8,9.7 -2.6,-12.4 -6.8,-19.75 -4.7,-8.3 -11.85,-14.75 -3.8,-3.4 -8.9,-2.9 -2.15,5.05 -2,5.95 l 2.1,16.2 q 1.9,15.35 -6.4,21.5 -8.35,6.15 -16.3,18.2 -3.45,5.25 -7.35,9.15 h 0.05 Q 22.95,33.7 16.7,44.05 10.55,60.5 -1.45,76.55 -4.1,77.6 -6.9,77.8 q -8.1,0.45 -9.55,-4.05 -1.45,-4.5 0.5,-10.5 l 4.9,-14.7 Q -8.1,39.9 -7.7,31 l 0.05,-5.5 0.85,-10.05 q 0.4,-18 1.4,-15.65 L -5.05,-0.75 -21.3,5.9 V 5.95 L -21.5,6 q -1.25,0.3 -6.6,3.75 L -50.85,24.3 q -8.7,13.85 -19.75,24.95 -5.25,13.55 -15.25,15.05"
       fill="#ffffff"
       fill-rule="evenodd"
       stroke="none"
       id="path14" />
    <path
       d="m 90.3,-10.95 q -4.95,2.6 -9.5,0 -9.4,-5 -13.55,4.3 -4.2,9.3 -9.15,14.4 -5,5.05 -14.15,12.8 l -7.65,6.2 q -5,3.75 -8.2,8.6 l -6.25,9.15 q -3.05,4.3 -4.45,7.7 l -3.5,7.25 q -2.05,3.8 -6.3,9.85 -4.2,5.2 -9.05,7.25 12,-16.05 18.15,-32.5 6.25,-10.35 16.15,-21.4 H 32.8 q 3.9,-3.9 7.35,-9.15 7.95,-12.05 16.3,-18.2 8.3,-6.15 6.4,-21.5 l -2.1,-16.2 q -0.15,-0.9 2,-5.95 5.1,-0.5 8.9,2.9 7.15,6.45 11.85,14.75 4.2,7.35 6.8,19.75 M -7.65,25.5 q -0.2,-5.45 -1.3,-9.65 L -9.6,13.3 -11.3,5.4 V 5.35 l -0.05,0.05 -15.55,7.5 q -8.2,3.9 -14.95,9.45 -6.8,5.55 -11.2,10.85 L -63.3,45.3 q -5.9,6.85 -9.5,13.35 -2.8,5.15 -8.6,5.7 -2.5,0.3 -4.45,-0.05 10,-1.5 15.25,-15.05 11.05,-11.1 19.75,-24.95 L -28.1,9.75 Q -22.75,6.3 -21.5,6 l 0.2,-0.05 V 5.9 L -5.05,-0.75 -5.4,-0.2 q -1,-2.35 -1.4,15.65 L -7.65,25.5"
       fill="#cccccc"
       fill-rule="evenodd"
       stroke="none"
       id="path16" />
    <path
       d="m -85.85,64.3 q -6.2,-1.2 -7.1,-8.7 -1.15,-9.2 3.75,-17.15 l 9,-14.35 q 4.4,-6.9 8.85,-12.05 4.4,-5.2 12.35,-13.35 7.9,-8.2 12.75,-12.05 4.8,-3.85 10.65,-9.65 5.55,-5.5 10.6,-11.5 3.85,-4.65 9.4,-7.05 8.05,-3.55 16.8,-5.4 l 16.85,-3.15 q 8.85,-1.5 16.55,-5.75 4.8,-2.6 6.85,-7.8 3.25,-8.35 10.3,-13.15 2.65,-1.75 5.75,-0.55 7.7,2.8 12.7,9.35 5,6.4 8.8,13.7 3.85,7.35 6.75,15.05 2.85,7.55 5.85,14.95 l 1.5,3.65 q 0.45,6.85 -2.8,9.7 -4.95,2.6 -9.5,0 -9.4,-5 -13.55,4.3 -4.2,9.3 -9.15,14.4 -5,5.05 -14.15,12.8 l -7.65,6.2 q -5,3.75 -8.2,8.6 l -6.25,9.15 q -3.05,4.3 -4.45,7.7 l -3.5,7.25 q -2.05,3.8 -6.3,9.85 -4.2,5.2 -9.05,7.25 -2.65,1.05 -5.45,1.25 -8.1,0.45 -9.55,-4.05 -1.45,-4.5 0.5,-10.5 l 4.9,-14.7 Q -8.1,39.9 -7.7,31 l 0.05,-5.5 q -0.2,-5.45 -1.3,-9.65 L -9.6,13.3 -11.3,5.4 V 5.35 l -0.05,0.05 -15.55,7.5 q -8.2,3.9 -14.95,9.45 -6.8,5.55 -11.2,10.85 L -63.3,45.3 q -5.9,6.85 -9.5,13.35 -2.8,5.15 -8.6,5.7 -2.5,0.3 -4.45,-0.05 z"
       fill="none"
       stroke="#666666"
       stroke-linecap="round"
       stroke-linejoin="round"
       stroke-width="2"
       id="path18" />
  </g>
</svg>
