<?xml version="1.0" encoding="UTF-8" standalone="no"?>
<svg
   height="50"
   width="28"
   version="1.1"
   id="svg12"
   sodipodi:docname="157.svg"
   inkscape:version="1.1.1 (3bf5ae0d25, 2021-09-20)"
   xmlns:inkscape="http://www.inkscape.org/namespaces/inkscape"
   xmlns:sodipodi="http://sodipodi.sourceforge.net/DTD/sodipodi-0.dtd"
   xmlns="http://www.w3.org/2000/svg"
   xmlns:svg="http://www.w3.org/2000/svg">
  <defs
     id="defs16" />
  <sodipodi:namedview
     id="namedview14"
     pagecolor="#ffffff"
     bordercolor="#666666"
     borderopacity="1.0"
     inkscape:pageshadow="2"
     inkscape:pageopacity="0.0"
     inkscape:pagecheckerboard="0"
     showgrid="false"
     inkscape:zoom="16"
     inkscape:cx="14.71875"
     inkscape:cy="27.9375"
     inkscape:window-width="3440"
     inkscape:window-height="1330"
     inkscape:window-x="-12"
     inkscape:window-y="-12"
     inkscape:window-maximized="1"
     inkscape:current-layer="svg12"
     showguides="false" />
  <g
     transform="matrix(1.3311217,0,0,1.3793068,59.923699,0.37937372)"
     id="g10">
    <path
       d="m -27.25,13.7 v 0.05 q 2,0.35 2.2,2.45 -0.1,1.35 -1.15,2.05 l -2.05,2.2 0.55,3.2 0.15,0.85 q -0.2,2.2 -2.5,2.4 -1,0 -1.65,-0.6 l -2.65,-1.3 -3,1.55 q -0.55,0.4 -1.3,0.45 -2.25,-0.2 -2.5,-2.45 l 0.2,-0.9 H -41 l 0.45,-3 -2.3,-2.2 q -1.05,-0.7 -1.1,-2.05 0.1,-1.8 1.8,-2.35 V 14 h 0.1 l 3.7,-0.5 1.4,-3.1 h 0.05 q 0.55,-1.6 2.35,-1.7 1.8,0.1 2.35,1.85 l 1.45,2.75 3.5,0.4"
       fill="#00ccff"
       fill-rule="evenodd"
       stroke="none"
       id="path2" />
    <path
       d="m -27.25,13.7 -3.5,-0.4 -1.45,-2.75 q -0.55,-1.75 -2.35,-1.85 -1.8,0.1 -2.35,1.7 h -0.05 l -1.4,3.1 -3.7,0.5 h -0.1 v 0.05 q -1.7,0.55 -1.8,2.35 0.05,1.35 1.1,2.05 l 2.3,2.2 -0.45,3 h 0.05 l -0.2,0.9 q 0.25,2.25 2.5,2.45 0.75,-0.05 1.3,-0.45 l 3,-1.55 2.65,1.3 q 0.65,0.6 1.65,0.6 2.3,-0.2 2.5,-2.4 l -0.15,-0.85 -0.55,-3.2 2.05,-2.2 q 1.05,-0.7 1.15,-2.05 -0.2,-2.1 -2.2,-2.45 z"
       fill="none"
       stroke="#1c9cd2"
       stroke-linecap="round"
       stroke-linejoin="round"
       stroke-width="2"
       id="path4" />
    <path
       d="m -42.45,17.55 q -0.4,-0.4 -0.4,-1 0,-0.55 0.4,-0.95 0.4,-0.45 0.95,-0.45 0.6,0 1,0.45 0.4,0.4 0.4,0.95 0,0.6 -0.4,1 -0.4,0.4 -1,0.4 -0.55,0 -0.95,-0.4"
       fill="#ffffff"
       fill-opacity="0.462745"
       fill-rule="evenodd"
       stroke="none"
       id="path6" />
    <path
       d="m -39.5,20 -0.3,-0.65 0.3,-0.6 q 0.25,-0.3 0.65,-0.3 0.35,0 0.6,0.3 0.3,0.25 0.3,0.6 0,0.4 -0.3,0.65 -0.25,0.3 -0.6,0.3 L -39.5,20"
       fill="#ffffff"
       fill-opacity="0.462745"
       fill-rule="evenodd"
       stroke="none"
       id="path8" />
  </g>
</svg>
