<?xml version="1.0" encoding="UTF-8" standalone="no"?>
<svg
   height="50"
   width="320"
   version="1.1"
   id="svg10"
   sodipodi:docname="175.svg"
   inkscape:version="1.1.1 (3bf5ae0d25, 2021-09-20)"
   xmlns:inkscape="http://www.inkscape.org/namespaces/inkscape"
   xmlns:sodipodi="http://sodipodi.sourceforge.net/DTD/sodipodi-0.dtd"
   xmlns="http://www.w3.org/2000/svg"
   xmlns:svg="http://www.w3.org/2000/svg">
  <defs
     id="defs14" />
  <sodipodi:namedview
     id="namedview12"
     pagecolor="#ffffff"
     bordercolor="#666666"
     borderopacity="1.0"
     inkscape:pageshadow="2"
     inkscape:pageopacity="0.0"
     inkscape:pagecheckerboard="0"
     showgrid="false"
     inkscape:zoom="3.4037317"
     inkscape:cx="209.62286"
     inkscape:cy="56.408676"
     inkscape:window-width="3440"
     inkscape:window-height="1330"
     inkscape:window-x="-12"
     inkscape:window-y="-12"
     inkscape:window-maximized="1"
     inkscape:current-layer="g8" />
  <g
     transform="translate(52,4.25)"
     id="g8">
    <path
       d="m -44.333824,40.14935 -1.300748,-1.639788 -1.851064,-3.053396 c -2.034502,-3.995803 -3.101782,-8.688988 -3.201841,-14.079554 0.100059,-6.898415 1.784361,-12.6282473 5.052905,-17.1894948 3.268546,-4.56124763 7.354227,-6.9361119 12.257046,-7.1245933 H 247.17972 C 264.1895,14.628981 264.45633,28.331573 247.98019,38.170295 205.75591,40.922123 87.325187,41.789137 45.267679,40.771338 L -44.333824,40.14935"
       fill="#ffffff"
       fill-rule="evenodd"
       stroke="none"
       id="path2"
       sodipodi:nodetypes="ccccsccccc"
       style="display:inline;fill:#ededed;fill-opacity:1;stroke-width:1.06374" />
    <path
       d="m 246.79623,-2.9374761 h 2.54888 c 4.89785,0.1838376 8.97939,2.50019125 12.24462,6.949061 3.26523,4.4488698 4.96448,10.0375331 5.09775,16.7659881 l -0.1,2.09575 c -0.33318,4.412101 -1.38272,8.291076 -3.14861,11.636919 l -1.84918,2.978168 c -3.26523,4.448871 -7.34677,6.765225 -12.24462,6.949063 H -33.395094 l -1.249449,-0.05515 c -3.731689,-0.44121 -6.9636,-2.206052 -9.695729,-5.294522 l 89.51057,0.606664 c 42.014825,0.992723 160.244162,0.147069 202.425582,-2.536959 16.45943,-9.596323 16.19287,-22.961316 -0.79965,-40.0949799"
       fill="#e6e6e6"
       fill-rule="evenodd"
       stroke="none"
       id="path4"
       sodipodi:nodetypes="ccsccccccccccc"
       style="stroke-width:1.05002" />
    <path
       d="m 246.79623,-2.9374764 h 2.54888 c 4.89785,0.1838377 8.97939,2.50019133 12.24462,6.9490611 3.26523,4.4488698 4.96448,10.0375333 5.09775,16.7659883 l -0.1,2.09575 c -0.33318,4.412101 -1.38272,8.291076 -3.14861,11.636919 l -1.84918,2.978168 c -3.26523,4.448871 -7.34677,6.765225 -12.24462,6.949063 H -33.395095 l -1.249449,-0.05515 c -3.731689,-0.44121 -6.9636,-2.206052 -9.695729,-5.294522 l -1.299428,-1.599388 -1.849185,-2.978168 c -2.032438,-3.897357 -3.098635,-8.474914 -3.198592,-13.732669 0.09996,-6.728456 1.782549,-12.3171192 5.047777,-16.765989 3.26523,-4.4488698 7.346765,-6.7652234 12.244606,-6.9490611 z"
       fill="none"
       stroke="#1c9cd2"
       stroke-linecap="round"
       stroke-linejoin="round"
       stroke-width="2.62505"
       id="path6"
       sodipodi:nodetypes="ccscccccccccccscc" />
  </g>
</svg>
