<?xml version="1.0" encoding="UTF-8" standalone="no"?>
<svg xmlns:xlink="http://www.w3.org/1999/xlink" height="194.8px" width="373.95px" xmlns="http://www.w3.org/2000/svg">
  <g transform="matrix(1.0, 0.0, 0.0, 1.0, -465.4, 53.5)">
    <path d="M834.6 -30.6 L792.25 133.75 Q791.95 134.7 791.25 135.2 790.35 135.65 789.5 135.5 L789.25 135.5 788.9 135.5 788.8 135.5 788.7 135.5 788.55 135.5 Q668.6 122.65 512.15 139.05 L511.8 139.05 511.0 139.1 510.95 139.1 Q510.05 139.2 509.35 138.7 508.6 138.2 508.4 137.3 L467.85 -29.0 467.7 -29.35 Q467.5 -30.05 467.7 -30.8 467.9 -31.55 468.6 -31.95 469.0 -32.35 469.6 -32.4 L469.65 -32.4 Q661.05 -60.85 832.85 -34.35 833.8 -34.25 834.4 -33.45 834.95 -32.65 834.8 -31.7 L834.8 -31.6 834.7 -31.0 834.7 -30.8 834.6 -30.6 M816.25 59.8 L816.4 59.8 816.6 59.95 Q816.3 59.8 816.25 59.8 M656.65 64.55 L656.8 64.55 656.95 64.6 656.95 63.45 655.35 64.1 656.2 64.5 656.3 64.35 656.3 64.5 656.35 64.55 656.2 64.55 656.2 64.5 655.85 65.2 Q656.35 64.9 656.95 64.75 L656.75 64.6 656.65 64.6 656.6 64.55 656.65 64.55" fill="#000000" fill-opacity="0.2509804" fill-rule="evenodd" stroke="none"/>
    <path d="M835.6 -34.25 L835.55 -34.3 Q834.6 -35.55 833.05 -35.75 661.25 -62.3 469.9 -33.85 L469.6 -33.85 469.55 -33.85 469.45 -33.85 Q468.5 -33.7 467.7 -33.15 466.7 -32.4 466.3 -31.25 465.95 -30.05 466.3 -28.85 L466.45 -28.55 506.9 137.65 506.9 137.75 Q507.3 139.1 508.55 139.95 L508.45 139.85 Q509.7 140.75 511.15 140.6 L511.15 140.5 511.8 140.5 512.1 140.5 512.3 140.5 Q668.6 124.1 788.4 136.95 L788.6 136.95 788.7 136.95 788.8 136.95 788.9 136.95 789.2 136.95 789.25 136.95 Q790.7 137.15 791.95 136.45 793.25 135.55 793.65 134.15 L793.65 134.1 836.0 -30.05 836.15 -30.75 836.15 -30.8 836.2 -31.25 836.3 -31.4 Q836.5 -33.0 835.6 -34.25 M836.95 -31.0 L836.85 -30.8 836.85 -30.75 836.65 -29.8 794.35 134.3 Q793.85 136.05 792.4 137.0 L792.3 137.0 Q790.85 137.9 789.25 137.65 L789.05 137.6 789.05 137.65 788.9 137.65 788.8 137.65 788.7 137.65 788.6 137.65 788.3 137.65 Q668.6 124.85 512.4 141.25 L512.1 141.25 511.8 141.25 511.3 141.25 511.2 141.25 Q509.45 141.45 508.1 140.45 L508.15 140.5 Q506.7 139.55 506.25 137.9 L506.2 137.8 465.65 -28.55 465.65 -28.6 Q465.15 -30.05 465.65 -31.45 466.1 -32.9 467.25 -33.7 468.2 -34.45 469.4 -34.6 661.05 -63.0 833.2 -36.5 835.05 -36.25 836.2 -34.65 L836.15 -34.75 Q837.3 -33.2 837.0 -31.3 L836.95 -31.0" fill="#000000" fill-opacity="0.0627451" fill-rule="evenodd" stroke="none"/>
    <path d="M835.6 -34.25 Q836.5 -33.0 836.3 -31.4 L836.2 -31.25 836.15 -30.8 836.15 -30.75 836.0 -30.05 793.65 134.1 793.65 134.15 Q793.25 135.55 791.95 136.45 790.7 137.15 789.25 136.95 L789.2 136.95 788.9 136.95 788.8 136.95 788.7 136.95 788.6 136.95 788.4 136.95 Q668.6 124.1 512.3 140.5 L512.1 140.5 511.8 140.5 511.15 140.5 511.15 140.6 Q509.7 140.75 508.45 139.85 L508.55 139.95 Q507.3 139.1 506.9 137.75 L506.9 137.65 466.45 -28.55 466.3 -28.85 Q465.95 -30.05 466.3 -31.25 466.7 -32.4 467.7 -33.15 468.5 -33.7 469.45 -33.85 L469.55 -33.85 469.6 -33.85 469.9 -33.85 Q661.25 -62.3 833.05 -35.75 834.6 -35.55 835.55 -34.3 L835.6 -34.25 M835.05 -33.8 Q834.95 -33.85 834.95 -33.85 834.25 -34.9 833.0 -35.1 661.05 -61.55 469.6 -33.15 L469.3 -33.05 Q468.65 -33.0 468.15 -32.55 467.35 -31.95 467.05 -31.0 466.7 -30.05 467.05 -29.15 L467.05 -29.05 467.1 -28.75 507.65 137.45 507.65 137.5 Q507.95 138.6 508.95 139.25 L508.9 139.25 Q509.85 139.95 511.1 139.85 L511.8 139.8 512.1 139.8 512.25 139.8 Q668.6 123.4 788.45 136.2 L788.6 136.2 788.7 136.2 788.8 136.2 788.9 136.2 789.25 136.2 789.35 136.2 Q790.5 136.45 791.6 135.75 792.6 135.1 793.0 133.95 L835.35 -30.35 835.25 -30.3 835.4 -30.8 835.4 -30.9 835.55 -31.4 835.55 -31.55 Q835.75 -32.75 835.05 -33.8" fill="#000000" fill-opacity="0.1254902" fill-rule="evenodd" stroke="none"/>
    <path d="M835.05 -33.8 Q835.75 -32.75 835.55 -31.55 L835.55 -31.4 835.4 -30.9 835.4 -30.8 835.25 -30.3 835.35 -30.35 793.0 133.95 Q792.6 135.1 791.6 135.75 790.5 136.45 789.35 136.2 L789.25 136.2 788.9 136.2 788.8 136.2 788.7 136.2 788.6 136.2 788.45 136.2 Q668.6 123.4 512.25 139.8 L512.1 139.8 511.8 139.8 511.1 139.85 Q509.85 139.95 508.9 139.25 L508.95 139.25 Q507.95 138.6 507.65 137.5 L507.65 137.45 467.1 -28.75 467.05 -29.05 467.05 -29.15 Q466.7 -30.05 467.05 -31.0 467.35 -31.95 468.15 -32.55 468.65 -33.0 469.3 -33.05 L469.6 -33.15 Q661.05 -61.55 833.0 -35.1 834.25 -34.9 834.95 -33.85 834.95 -33.85 835.05 -33.8 M834.6 -30.6 L834.7 -30.8 834.7 -31.0 834.8 -31.6 834.8 -31.7 Q834.95 -32.65 834.4 -33.45 833.8 -34.25 832.85 -34.35 661.05 -60.85 469.65 -32.4 L469.6 -32.4 Q469.0 -32.35 468.6 -31.95 467.9 -31.55 467.7 -30.8 467.5 -30.05 467.7 -29.35 L467.85 -29.0 508.4 137.3 Q508.6 138.2 509.35 138.7 510.05 139.2 510.95 139.1 L511.0 139.1 511.8 139.05 512.15 139.05 Q668.6 122.65 788.55 135.5 L788.7 135.5 788.8 135.5 788.9 135.5 789.25 135.5 789.5 135.5 Q790.35 135.65 791.25 135.2 791.95 134.7 792.25 133.75 L834.6 -30.6 M656.8 64.55 L656.95 64.35 656.65 64.2 656.65 64.55 656.6 64.55 656.65 64.6 656.65 64.85 656.75 64.6 656.95 64.75 Q656.35 64.9 655.85 65.2 L656.2 64.5 656.2 64.55 656.35 64.55 656.3 64.5 656.3 64.35 656.2 64.5 655.35 64.1 656.95 63.45 656.95 64.6 656.8 64.55" fill="#000000" fill-opacity="0.1882353" fill-rule="evenodd" stroke="none"/>
    <path d="M503.8 22.65 Q473.9 -22.05 521.15 -26.05 678.15 -47.8 824.9 -32.1 L804.05 85.1 767.9 68.15 Q732.4 56.6 703.8 51.8 L696.75 51.0 690.5 50.7 Q681.3 50.7 672.55 53.05 663.5 55.3 654.9 60.05 652.0 59.0 648.7 59.0 641.95 59.0 637.1 63.25 L635.75 64.7 634.85 63.6 Q629.85 57.75 622.7 57.75 615.55 57.75 610.5 63.6 607.45 67.1 606.3 71.55 603.15 70.0 599.35 70.0 592.95 70.0 588.35 74.3 585.95 76.6 584.85 79.35 581.7 76.3 578.05 74.55 L578.05 73.3 Q578.05 65.7 572.45 60.35 566.9 54.95 559.05 54.95 553.45 54.95 549.0 57.7 550.0 54.0 550.0 49.9 550.0 39.1 542.95 31.45 535.95 23.9 526.0 23.9 L503.8 22.65" fill="url(#gradient0)" fill-rule="evenodd" stroke="none"/>
    <path d="M503.8 22.65 L526.0 23.9 Q535.95 23.9 542.95 31.45 550.0 39.1 550.0 49.9 550.0 54.0 549.0 57.7 553.45 54.95 559.05 54.95 566.9 54.95 572.45 60.35 578.05 65.7 578.05 73.3 L578.05 74.55 Q581.7 76.3 584.85 79.35 585.95 76.6 588.35 74.3 592.95 70.0 599.35 70.0 603.15 70.0 606.3 71.55 607.45 67.1 610.5 63.6 615.55 57.75 622.7 57.75 629.85 57.75 634.85 63.6 L635.75 64.7 637.1 63.25 Q641.95 59.0 648.7 59.0 652.0 59.0 654.9 60.05 L654.6 60.2 Q651.9 61.65 649.35 63.4 643.75 66.95 638.0 70.3 L631.7 73.9 631.6 73.95 Q622.95 78.6 614.0 82.7 L606.3 86.05 595.35 90.3 590.9 91.9 Q588.65 92.7 586.3 93.65 574.2 98.15 559.7 104.05 553.2 106.6 546.35 109.45 535.0 114.05 522.45 119.35 L521.15 109.75 503.8 22.65 M584.85 79.35 L584.85 79.4 584.9 79.4 584.85 79.35 M545.7 86.35 L545.55 86.3 545.7 86.4 545.7 86.35" fill="url(#gradient1)" fill-rule="evenodd" stroke="none"/>
    <path d="M584.85 79.35 L584.9 79.4 584.85 79.4 584.85 79.35 M545.7 86.35 L545.7 86.4 545.55 86.3 545.7 86.35" fill="url(#gradient2)" fill-rule="evenodd" stroke="none"/>
    <path d="M775.4 17.15 Q784.8 26.6 784.8 39.9 784.8 53.2 775.4 62.6 766.0 72.05 752.7 72.05 739.35 72.05 729.95 62.6 720.55 53.2 720.55 39.9 720.55 26.6 729.95 17.15 739.35 7.75 752.7 7.75 766.0 7.75 775.4 17.15" fill="url(#gradient3)" fill-rule="evenodd" stroke="none"/>
    <path d="M785.95 81.7 L770.5 76.55 764.75 74.5 Q748.05 68.2 732.65 62.9 L730.2 61.9 Q723.35 58.75 714.95 59.3 712.05 59.55 713.45 60.05 L714.8 60.7 Q715.9 61.3 717.6 61.9 L720.8 63.1 Q727.8 65.9 733.55 68.8 733.1 69.25 732.65 69.25 L688.0 69.6 Q687.2 69.6 686.75 70.05 L685.85 71.05 Q684.7 72.9 684.25 76.3 L684.1 78.05 Q683.75 81.5 680.4 82.3 678.6 80.4 678.65 76.4 L678.75 73.85 Q675.75 74.25 672.8 75.6 L671.05 76.15 Q666.1 77.2 663.25 80.3 661.3 82.45 661.0 80.6 662.55 80.25 662.7 78.05 662.4 76.3 663.2 75.2 L662.75 75.0 Q652.85 77.9 643.25 81.2 L641.7 81.7 Q633.9 84.55 625.6 89.0 626.0 88.65 626.55 88.35 629.5 86.8 629.8 83.1 621.35 83.8 614.7 89.05 L613.7 89.6 Q606.85 91.85 604.45 99.15 604.15 100.0 604.5 100.0 603.15 101.1 600.3 101.25 L599.4 101.45 Q590.6 105.4 580.95 108.6 L567.05 113.2 550.55 118.5 548.0 119.1 526.65 120.25 521.1 120.35 521.1 109.75 522.45 119.7 Q567.2 100.8 596.05 90.3 624.85 79.75 650.1 63.4 675.25 47.0 703.8 51.8 732.4 56.65 767.9 68.15 776.9 72.35 785.95 76.65 L785.95 81.7" fill="url(#gradient4)" fill-rule="evenodd" stroke="none"/>
    <path d="M567.05 113.2 L580.95 108.6 Q590.6 105.4 599.4 101.45 L600.3 101.25 Q603.15 101.1 604.5 100.0 604.15 100.0 604.45 99.15 606.85 91.85 613.7 89.6 L614.7 89.05 Q621.35 83.8 629.8 83.1 629.5 86.8 626.55 88.35 626.0 88.65 625.6 89.0 633.9 84.55 641.7 81.7 L643.25 81.2 Q652.85 77.9 662.75 75.0 L663.2 75.2 Q662.4 76.3 662.7 78.05 662.55 80.25 661.0 80.6 661.3 82.45 663.25 80.3 666.1 77.2 671.05 76.15 L672.8 75.6 Q675.75 74.25 678.75 73.85 L678.65 76.4 Q678.6 80.4 680.4 82.3 683.75 81.5 684.1 78.05 L684.25 76.3 Q684.7 72.9 685.85 71.05 L686.75 70.05 Q687.2 69.6 688.0 69.6 L732.65 69.25 Q733.1 69.25 733.55 68.8 727.8 65.9 720.8 63.1 L717.6 61.9 Q715.9 61.3 714.8 60.7 L713.45 60.05 Q712.05 59.55 714.95 59.3 723.35 58.75 730.2 61.9 L732.65 62.9 Q748.05 68.2 764.75 74.5 L770.5 76.55 785.95 81.7 785.95 121.5 Q674.35 98.05 567.05 113.2 M521.1 120.35 L526.65 120.25 521.1 121.5 521.1 120.35" fill="#378a00" fill-rule="evenodd" stroke="none"/>
    <path d="M823.65 34.55 L823.8 34.55 Q823.6 34.6 823.45 34.75 L823.65 34.55 M691.2 57.0 L691.4 56.75 693.4 54.35 Q692.15 54.2 690.9 53.5 L691.85 53.35 692.8 53.25 Q690.6 52.85 689.35 51.25 L691.65 51.65 690.85 51.15 692.6 50.95 691.1 50.5 689.75 49.75 Q692.15 50.7 695.4 48.95 L695.65 48.75 695.0 48.9 695.8 48.45 697.85 44.65 696.95 45.25 697.3 43.05 696.3 43.95 696.45 43.85 695.95 44.15 Q696.0 44.1 696.3 43.95 L694.6 44.4 696.45 42.4 Q697.7 40.8 698.25 40.6 698.75 39.2 698.75 37.3 L699.35 37.0 699.7 39.4 Q699.8 40.9 700.45 41.85 L700.15 41.55 700.45 42.35 700.0 42.05 700.4 42.65 699.85 42.25 Q700.8 44.4 701.6 44.95 700.95 44.95 700.5 44.3 L701.25 45.6 700.6 45.1 702.05 47.5 Q703.2 49.2 704.6 49.65 703.65 49.5 702.25 48.4 L704.1 50.15 Q703.0 49.9 702.2 49.1 702.8 50.8 704.75 52.55 L707.95 54.95 Q706.8 55.3 704.9 54.5 L706.8 55.95 Q704.9 55.7 703.3 54.1 L704.45 55.9 703.1 54.9 704.3 57.45 705.5 60.0 Q706.15 61.2 707.25 62.25 L709.25 64.05 708.05 63.55 706.85 62.95 Q707.5 64.0 708.75 64.65 L710.95 65.8 Q708.1 65.3 706.55 64.45 L707.15 65.3 707.6 66.2 Q707.1 66.1 706.55 65.65 L705.65 64.8 705.7 65.3 706.35 65.9 705.7 65.45 706.5 66.25 707.3 67.0 706.95 66.9 Q708.2 67.95 709.8 68.3 L711.1 69.25 712.35 70.05 Q713.7 70.75 715.3 70.4 L712.9 70.85 Q711.4 70.85 710.6 70.25 L710.8 70.55 709.5 70.55 Q709.55 71.35 710.5 72.0 L709.95 72.1 711.3 72.95 Q710.8 72.8 709.7 72.1 L709.25 72.1 711.15 74.4 710.9 74.7 709.55 75.95 710.65 75.8 711.45 75.2 711.1 76.55 710.75 76.0 710.9 77.9 710.05 79.0 709.55 79.3 709.95 79.25 709.8 79.35 706.0 79.45 707.8 80.6 706.65 80.55 707.15 81.05 705.7 80.45 706.05 81.05 704.15 80.9 Q702.65 80.45 701.2 79.1 L702.35 79.35 703.2 79.8 701.85 78.8 700.45 77.35 702.05 77.85 Q700.5 77.05 699.7 75.85 698.9 74.65 698.5 72.6 L699.35 72.95 700.15 73.45 699.6 71.8 700.6 72.3 698.9 70.9 697.4 69.3 699.05 68.45 697.75 68.35 Q699.15 67.8 699.95 66.55 L699.2 66.75 698.4 67.05 699.0 66.55 698.35 66.6 697.75 66.6 Q698.05 66.4 698.7 66.1 L699.65 65.45 Q697.95 66.4 695.65 65.4 L695.5 65.15 695.95 65.25 695.35 64.95 693.65 62.25 694.35 62.6 693.95 61.0 694.7 61.6 694.6 61.6 695.0 61.75 694.7 61.6 695.95 61.75 694.55 60.4 693.15 59.2 Q692.65 58.15 692.6 56.7 L692.2 56.55 Q692.0 57.15 692.05 58.45 L692.05 58.9 Q691.7 58.95 691.4 59.2 L691.2 57.0 M684.05 84.45 L684.2 84.4 684.1 84.45 683.7 85.2 683.55 85.5 683.25 85.35 684.05 84.45 M685.95 81.85 L684.25 81.4 682.35 80.9 683.55 80.75 682.6 80.1 681.55 79.45 682.35 79.5 683.05 79.45 Q681.15 78.7 679.65 77.2 L680.55 77.4 681.0 77.5 680.1 76.8 Q681.0 77.25 682.1 77.25 683.25 77.35 684.0 76.8 L683.1 76.3 683.75 76.1 684.35 75.85 681.65 75.45 684.8 75.15 684.4 75.6 Q685.3 75.95 686.65 75.15 L685.3 76.75 Q686.65 76.4 687.85 74.7 L687.05 76.6 688.05 75.5 687.35 77.55 686.9 78.05 687.25 77.9 687.1 78.3 686.95 78.8 685.85 79.6 Q686.4 79.35 686.8 79.25 L686.25 81.1 685.95 81.85 M687.9 71.15 L684.35 71.8 679.9 72.0 Q680.55 71.3 682.3 71.05 L683.7 70.9 685.0 70.6 Q686.6 69.95 688.15 68.65 L686.9 69.8 688.65 68.45 687.25 70.35 Q688.05 70.1 688.65 69.25 L688.5 69.8 687.25 71.0 688.0 71.0 687.9 71.15 M688.65 67.85 Q688.05 67.95 687.45 68.3 L685.95 69.15 688.05 67.4 689.5 65.75 688.8 67.5 Q688.65 67.65 688.65 67.85 M689.65 65.45 L687.6 66.25 689.6 64.7 689.35 65.45 689.9 64.85 689.65 65.45 M690.3 60.0 L689.9 60.25 690.45 58.5 690.45 58.65 690.3 60.0 M690.45 58.1 L689.1 58.9 690.55 57.55 690.45 58.1 M692.0 60.5 L692.05 60.5 692.0 60.55 692.0 60.5 M718.25 104.65 L718.0 104.1 718.45 104.5 718.0 103.7 718.6 104.25 718.1 103.0 719.1 103.95 Q718.45 103.15 718.4 102.25 L718.45 100.35 Q718.95 101.45 720.3 102.4 721.65 103.35 722.55 103.15 L719.9 100.6 Q718.45 99.05 717.65 97.4 L717.95 97.45 718.95 98.25 718.15 97.45 718.45 97.45 Q717.85 96.85 717.85 96.3 L718.75 96.45 718.7 96.15 Q719.55 97.1 721.75 96.7 720.65 96.8 719.85 96.15 L718.25 94.7 Q717.15 94.25 716.4 93.45 L716.65 93.5 715.7 92.25 716.1 92.65 715.7 92.15 715.7 91.85 715.75 91.85 716.25 92.5 716.95 92.95 716.25 91.6 Q717.3 92.35 719.1 92.95 L717.8 92.0 716.85 91.05 716.8 90.9 716.95 90.75 718.15 91.55 717.2 90.45 717.45 90.3 718.15 89.6 717.6 90.0 718.15 89.45 718.25 88.9 717.35 89.8 716.95 90.1 716.65 89.7 716.8 89.45 717.35 88.65 716.25 89.15 715.9 88.35 717.0 87.15 715.9 87.85 715.75 87.9 715.6 87.45 716.7 86.5 718.4 84.4 719.55 81.9 720.7 79.45 719.4 80.45 719.9 79.65 720.5 78.8 Q718.95 80.25 717.15 80.6 L718.95 79.15 Q717.15 79.9 716.0 79.5 L719.1 77.25 Q720.95 75.6 721.5 74.0 L719.7 75.0 721.45 73.3 719.2 74.5 Q720.5 74.05 721.65 72.5 L723.05 70.2 722.4 70.6 723.1 69.4 722.05 70.05 Q722.75 69.45 723.7 67.5 L723.25 67.8 723.65 67.25 Q723.5 67.25 723.2 67.5 L723.5 66.75 723.2 67.05 Q723.8 66.1 723.85 64.7 724.0 63.05 724.3 62.4 L724.8 62.75 Q724.8 64.5 725.3 65.8 L725.9 66.3 726.6 67.1 727.05 67.65 727.2 67.85 728.25 69.0 728.3 69.0 728.75 69.45 727.7 69.15 727.15 69.0 727.3 69.15 727.5 69.3 727.2 69.15 727.05 69.0 727.15 69.0 726.2 68.2 726.35 69.0 726.4 69.75 726.5 70.2 726.55 70.35 725.65 69.75 Q726.5 71.7 727.65 73.3 L728.35 73.75 727.8 73.6 728.0 73.85 Q729.9 74.85 731.6 74.9 L733.4 74.65 732.65 75.05 732.15 75.3 732.1 75.3 730.7 75.8 731.6 75.85 732.4 75.95 731.6 76.45 732.75 76.15 733.75 76.0 Q732.65 77.35 730.9 77.85 L730.55 77.9 731.35 78.05 732.3 78.2 731.3 78.7 729.9 79.0 731.65 81.1 731.85 81.25 734.05 83.3 Q733.45 83.1 732.6 82.5 L733.05 84.05 733.25 84.55 733.25 84.6 733.2 84.55 732.25 83.9 732.1 83.8 Q731.65 83.45 731.05 83.3 L731.05 83.55 731.3 84.6 731.6 85.55 Q731.7 86.1 731.95 86.5 L732.0 86.75 732.0 86.8 732.1 86.8 732.25 87.15 732.3 87.3 732.45 87.6 732.55 87.7 732.65 87.9 733.35 88.7 733.6 89.0 734.2 89.5 735.45 90.4 733.35 89.5 735.1 91.45 736.9 93.1 735.6 92.35 734.05 91.75 734.3 92.0 735.0 92.65 736.1 93.5 736.55 93.8 738.0 94.55 738.15 94.6 738.85 94.75 739.15 94.75 739.6 94.85 739.95 94.9 739.3 95.75 738.6 95.65 735.45 95.05 734.35 94.85 734.5 95.05 734.85 95.55 733.7 95.05 734.05 95.65 734.2 95.75 734.2 95.85 734.5 96.3 734.5 96.35 734.7 96.8 734.55 96.7 734.8 97.15 733.85 96.45 Q735.15 98.05 737.25 98.7 L739.45 99.05 739.25 99.5 738.6 99.55 739.1 99.7 738.15 100.75 739.1 100.2 738.3 101.45 737.4 102.35 738.0 101.9 Q738.35 101.6 738.7 101.6 737.85 102.85 736.9 103.3 L735.75 103.55 Q734.95 103.65 734.65 104.1 L736.6 103.95 738.6 103.5 738.35 103.85 738.85 103.55 738.45 104.65 738.5 104.6 738.45 104.65 718.25 104.65 M715.25 86.3 L715.1 85.85 715.4 85.8 715.6 86.0 715.25 86.3 M714.15 78.65 L714.1 78.5 715.7 78.15 714.6 78.8 714.15 78.65 M714.0 78.35 L713.45 76.95 713.85 77.4 713.5 76.45 714.15 77.05 714.0 76.8 715.45 77.85 715.2 78.0 714.0 78.35 M683.55 85.7 L683.7 85.55 683.85 85.35 684.35 85.0 685.2 84.35 684.05 85.95 683.55 85.7 M683.55 85.5 L683.45 85.65 683.15 85.5 683.25 85.4 683.55 85.5 683.45 85.55 683.55 85.5 M683.9 86.15 L683.85 86.15 682.45 87.25 682.15 86.9 682.25 86.8 682.0 86.65 682.25 86.45 682.95 86.2 682.75 86.2 682.5 86.15 682.75 85.95 683.9 86.15 M682.45 87.3 Q684.35 86.8 685.45 85.95 684.7 87.4 684.65 87.85 L684.85 87.75 682.75 89.8 682.5 89.6 682.3 89.35 682.75 88.9 682.95 88.7 682.9 88.7 683.1 88.5 682.5 88.65 682.35 88.7 682.3 88.7 683.25 88.05 683.45 88.05 683.25 87.95 683.85 87.3 683.4 87.45 Q683.3 87.45 683.25 87.55 L683.6 87.1 682.75 87.4 682.5 87.4 682.45 87.3 M682.95 90.25 L682.95 90.3 682.9 90.25 682.95 90.25 M682.8 90.4 L682.75 90.55 682.65 90.4 682.8 90.4 M682.45 86.2 L682.5 86.15 682.75 86.2 682.45 86.2 M707.45 83.95 L706.7 84.7 705.5 85.7 705.25 85.55 705.5 85.35 Q705.7 85.15 705.85 85.15 L704.9 84.85 706.8 84.35 703.95 84.25 Q702.35 83.95 701.35 82.8 L702.05 83.3 701.9 83.0 702.0 83.0 701.1 81.7 702.0 82.0 701.55 81.5 704.7 81.8 706.8 81.7 707.8 82.3 707.25 82.3 706.55 82.3 Q707.3 82.95 708.2 83.15 L707.5 83.9 706.95 83.8 707.45 83.95 M711.45 76.8 L711.25 76.65 711.7 76.45 711.45 76.8 M706.8 87.45 L706.05 87.45 706.95 86.9 706.8 87.45 M706.0 85.8 L705.7 85.8 706.05 85.55 706.0 85.8 M705.85 88.5 L706.45 87.9 706.7 87.7 706.35 88.55 706.2 88.55 705.85 88.5 M706.3 88.8 L705.9 89.45 704.75 90.6 704.0 89.65 Q704.4 89.35 705.35 89.15 L706.3 88.8 M705.05 90.95 L704.95 90.9 705.2 90.8 705.05 90.95 M714.95 85.5 L715.05 85.5 714.95 85.5 M738.6 104.65 L738.8 104.45 738.65 104.65 738.6 104.65" fill="#cc7d54" fill-rule="evenodd" stroke="none"/>
    <path d="M822.35 52.35 L821.95 52.2 822.1 52.2 822.35 52.35 M772.85 104.65 L772.25 103.3 Q772.6 102.9 773.65 102.75 L775.05 102.2 774.6 102.1 774.2 101.95 774.9 101.25 775.6 100.6 775.05 100.65 774.5 100.6 Q775.95 99.8 777.0 98.1 L776.35 98.4 776.05 98.45 776.7 97.75 Q776.05 98.2 775.25 98.25 774.35 98.35 773.85 97.75 L774.15 97.45 774.45 97.15 773.55 96.65 775.55 96.2 773.0 95.85 773.65 95.75 Q775.15 95.5 776.2 94.4 L775.45 94.85 775.6 94.55 775.55 94.6 776.35 93.3 775.55 93.6 775.9 93.15 772.9 93.35 770.5 93.3 770.35 92.85 771.6 92.65 773.4 92.55 774.0 92.35 776.85 92.5 Q776.4 91.85 775.4 91.55 L776.25 90.75 775.15 91.05 774.6 91.35 774.5 91.35 775.6 90.45 776.9 89.15 775.45 89.6 Q776.9 88.85 777.65 87.75 L778.9 84.6 Q778.4 84.6 778.1 84.9 L777.3 85.4 777.85 83.9 776.8 84.35 778.45 83.0 779.9 81.4 Q779.1 81.2 778.3 80.6 L778.95 80.55 779.55 80.55 Q778.15 80.05 777.45 78.8 L778.95 79.3 778.4 78.85 779.55 78.85 777.8 77.75 Q779.35 78.65 781.6 77.7 L781.75 77.5 781.3 77.55 781.9 77.35 783.4 74.7 782.85 75.05 783.2 73.45 782.45 74.05 782.55 74.05 782.15 74.2 782.45 74.05 781.3 74.2 782.6 73.05 Q783.55 71.95 783.9 71.8 L784.5 69.45 Q784.65 69.3 784.85 69.25 L785.0 71.05 Q784.95 72.15 785.4 72.9 L785.15 72.65 785.3 73.25 785.0 73.05 785.25 73.45 784.95 73.2 Q785.45 74.8 785.95 75.3 785.45 75.2 785.25 74.7 L785.65 75.75 785.25 75.3 786.05 77.2 Q786.75 78.5 787.65 78.95 787.0 78.7 786.2 77.85 L787.25 79.25 Q786.55 79.0 786.1 78.35 786.4 79.6 787.55 81.05 L789.55 83.1 Q788.75 83.25 787.55 82.5 L788.75 83.75 Q787.5 83.4 786.55 82.05 L787.2 83.45 786.35 82.6 787.0 84.55 787.65 86.6 Q788.0 87.55 788.65 88.35 L789.9 89.85 788.35 88.85 Q788.75 89.65 789.55 90.25 L790.9 91.25 Q789.1 90.65 788.1 89.85 L788.65 91.25 788.0 90.75 787.5 90.1 787.5 90.45 787.85 90.9 787.5 90.55 787.5 90.6 Q787.7 91.05 788.45 91.75 L788.2 91.7 Q789.1 92.7 790.4 93.1 L789.95 93.0 791.65 94.45 Q792.45 95.1 793.55 94.95 791.3 95.35 790.4 94.45 L790.55 94.7 789.7 94.6 Q789.7 95.2 790.25 95.75 L789.9 95.75 790.75 96.5 789.75 95.7 789.45 95.7 Q790.25 97.3 791.65 98.9 L793.75 100.95 793.75 101.45 793.55 101.45 793.45 101.45 792.1 100.75 Q790.75 99.8 790.2 98.7 L790.2 100.6 Q790.25 101.4 790.85 102.2 L789.8 101.3 790.4 102.5 789.8 102.05 789.9 102.25 790.2 102.75 789.75 102.4 Q789.95 103.15 790.7 103.85 L791.5 104.65 772.85 104.65 M692.05 58.9 L692.05 58.45 Q692.0 57.15 692.2 56.55 L692.6 56.7 Q692.65 58.15 693.15 59.2 L694.55 60.4 695.95 61.75 694.7 61.6 695.0 61.75 694.6 61.6 694.7 61.6 693.95 61.0 694.35 62.6 693.65 62.25 695.35 64.95 695.95 65.25 695.5 65.15 695.65 65.4 Q697.95 66.4 699.65 65.45 L698.7 66.1 Q698.05 66.4 697.75 66.6 L698.35 66.6 699.0 66.55 698.4 67.05 699.2 66.75 699.95 66.55 Q699.15 67.8 697.75 68.35 L699.05 68.45 697.4 69.3 698.9 70.9 700.6 72.3 699.6 71.8 700.15 73.45 699.35 72.95 698.5 72.6 Q698.9 74.65 699.7 75.85 700.5 77.05 702.05 77.85 L700.45 77.35 701.85 78.8 703.2 79.8 702.35 79.35 701.2 79.1 Q702.65 80.45 704.15 80.9 L706.05 81.05 705.7 80.45 707.15 81.05 706.65 80.55 707.8 80.6 706.0 79.45 709.8 79.35 709.95 79.25 709.55 79.3 710.05 79.0 710.9 77.9 711.45 76.8 711.7 76.45 711.25 76.65 711.0 76.8 711.1 76.55 711.45 75.2 710.65 75.8 709.55 75.95 710.9 74.7 711.15 74.4 Q711.8 73.6 712.2 73.45 L712.7 71.15 713.05 71.0 713.2 72.8 Q713.2 73.85 713.55 74.65 L713.35 74.35 713.55 74.9 713.2 74.7 713.45 75.2 713.15 74.85 Q713.55 76.25 714.0 76.8 L714.15 77.05 713.5 76.45 713.85 77.4 713.45 76.95 714.0 78.35 714.1 78.5 714.15 78.65 714.3 78.85 714.3 78.95 714.6 79.45 714.75 79.6 714.9 79.9 715.05 80.05 715.7 80.55 714.95 80.1 714.75 79.9 714.5 79.65 714.65 79.9 714.9 80.15 715.25 80.7 715.45 81.0 715.1 80.75 714.6 80.4 714.3 80.1 714.45 80.55 714.6 80.9 714.9 81.5 715.2 81.9 715.25 82.0 715.85 82.75 717.8 84.75 Q717.0 84.9 715.75 84.25 L716.95 85.5 Q715.7 85.05 714.75 83.8 L715.4 85.2 714.5 84.35 714.95 85.5 715.1 85.85 715.25 86.3 715.6 87.45 715.75 87.9 715.9 88.25 715.9 88.35 716.25 89.15 716.65 89.7 716.95 90.1 717.2 90.45 718.15 91.55 716.95 90.75 716.65 90.55 716.8 90.9 716.85 91.05 717.8 92.0 719.1 92.95 Q717.3 92.35 716.25 91.6 L716.95 92.95 716.25 92.5 715.75 91.85 715.7 91.75 715.7 91.85 715.7 92.15 716.1 92.65 715.7 92.25 716.65 93.5 716.4 93.45 Q717.15 94.25 718.25 94.7 L719.85 96.15 Q720.65 96.8 721.75 96.7 719.55 97.1 718.7 96.15 L718.75 96.45 717.85 96.3 Q717.85 96.85 718.45 97.45 L718.15 97.45 718.95 98.25 717.95 97.45 717.65 97.4 Q718.45 99.05 719.9 100.6 L722.55 103.15 Q721.65 103.35 720.3 102.4 718.95 101.45 718.45 100.35 L718.4 102.25 Q718.45 103.15 719.1 103.95 L718.1 103.0 718.6 104.25 718.0 103.7 718.45 104.5 718.0 104.1 718.25 104.65 701.1 104.65 701.85 104.45 Q702.8 104.25 703.3 103.85 L702.85 103.85 702.4 103.7 703.15 103.0 703.8 102.35 703.3 102.35 702.8 102.25 Q704.15 101.55 705.25 99.85 L704.6 100.05 704.25 100.15 704.95 99.4 703.5 99.95 Q702.55 100.0 702.05 99.5 L702.35 99.15 702.7 98.9 701.85 98.4 703.8 97.95 700.8 97.4 Q699.15 96.65 698.2 94.85 L698.9 95.65 698.75 95.2 698.85 95.25 698.5 94.25 698.05 93.2 698.9 93.8 698.55 93.1 701.85 93.95 705.1 94.25 Q704.55 93.45 703.3 93.15 L702.25 92.95 701.35 92.65 Q699.8 91.85 698.35 89.5 L699.5 90.15 700.5 90.95 699.05 89.2 697.75 86.9 699.35 87.9 Q697.85 86.5 697.1 84.75 696.3 82.95 696.0 79.8 L696.9 80.55 697.75 81.35 697.25 78.95 698.35 79.9 696.6 77.55 Q695.7 76.3 695.15 75.0 696.1 74.8 696.95 74.05 L696.3 73.9 695.65 73.75 Q697.15 73.25 698.1 71.5 L697.3 71.7 696.45 72.0 Q696.6 71.85 697.1 71.45 L696.45 71.35 695.8 71.3 696.8 70.7 697.85 69.95 Q696.0 71.0 693.65 69.1 L693.55 68.8 693.95 68.95 693.4 68.5 Q692.5 66.6 691.85 64.35 L692.5 65.0 692.2 62.6 693.0 63.55 694.25 64.05 Q693.8 63.7 692.85 61.95 L692.05 60.7 692.15 60.65 692.05 60.65 692.0 60.55 692.05 60.5 692.0 60.5 691.85 60.25 691.9 60.15 691.8 60.2 691.8 60.15 692.05 58.9 M684.9 83.6 L683.1 83.45 Q684.2 83.6 685.15 82.95 L685.6 82.5 684.9 83.55 684.9 83.6 M714.5 79.65 L714.35 79.5 714.5 79.65 M715.7 80.55 L715.9 80.6 715.7 80.55 M688.5 69.8 L688.0 71.0 687.25 71.0 688.5 69.8 M687.35 77.55 L687.25 77.9 686.9 78.05 687.35 77.55 M686.95 78.8 L686.8 79.25 Q686.4 79.35 685.85 79.6 L686.95 78.8 M684.85 87.75 L685.45 87.25 686.15 86.3 686.1 86.9 685.6 87.45 Q685.85 87.15 686.1 87.05 L684.9 88.7 685.15 88.65 683.1 90.15 682.75 89.8 684.85 87.75 M682.9 90.25 L682.95 90.25 682.9 90.25 M707.5 83.9 L708.2 83.15 Q707.3 82.95 706.55 82.3 L707.25 82.3 707.8 82.3 706.8 81.7 704.7 81.8 701.55 81.5 702.0 82.0 701.1 81.7 702.0 83.0 701.9 83.0 702.05 83.3 701.35 82.8 Q702.35 83.95 703.95 84.25 L706.8 84.35 704.9 84.85 705.85 85.15 Q705.7 85.15 705.5 85.35 L705.25 85.55 705.5 85.7 706.7 84.7 707.45 83.95 707.5 83.9 M706.0 85.8 L706.05 85.55 705.7 85.8 706.0 85.8 M706.8 87.45 L706.95 86.9 706.05 87.45 706.8 87.45 M705.85 88.5 L706.2 88.55 706.35 88.55 706.7 87.7 706.45 87.9 705.85 88.5 M705.05 90.95 L705.2 90.8 704.95 90.9 705.05 90.95 M706.3 88.8 L705.35 89.15 Q704.4 89.35 704.0 89.65 L704.75 90.6 705.9 89.45 706.3 88.8" fill="#a3af62" fill-rule="evenodd" stroke="none"/>
    <path d="M676.05 67.0 L676.1 67.0 676.25 67.2 676.05 67.0 M803.45 57.65 L803.7 57.8 803.45 57.65" fill="#6da168" fill-rule="evenodd" stroke="none"/>
    <path d="M755.85 84.25 L756.95 82.6 Q756.35 83.0 756.05 83.3 L755.2 83.8 755.25 83.75 756.75 81.85 757.95 79.35 758.9 76.55 759.8 73.75 758.75 74.85 759.65 72.95 Q758.5 74.7 757.0 75.05 L758.5 73.4 Q757.0 74.25 756.15 73.9 L758.55 71.2 Q759.95 69.4 760.45 67.55 L759.05 68.65 760.35 66.75 Q759.35 67.95 758.6 68.05 759.65 67.55 760.5 65.8 L761.6 63.1 761.1 63.7 761.6 62.3 Q761.3 62.95 760.8 63.05 761.4 62.4 762.1 60.05 L761.75 60.5 762.05 59.85 761.7 60.15 761.9 59.25 761.7 59.55 762.25 57.0 Q762.35 55.0 762.55 54.3 L762.9 54.65 Q762.9 56.65 763.35 58.25 L764.65 60.25 Q765.6 61.95 766.0 62.3 L764.8 61.9 764.0 60.85 764.3 63.35 763.65 62.7 765.1 66.75 765.7 67.25 765.25 67.05 765.4 67.35 Q767.8 69.25 769.65 68.2 L768.6 69.0 767.5 69.55 768.15 69.7 768.85 69.75 768.15 70.35 769.05 70.05 769.9 69.8 Q768.9 71.55 767.35 72.0 L768.05 72.15 768.75 72.3 766.95 73.25 Q767.5 74.55 768.4 75.85 L770.05 78.2 769.0 77.25 769.5 79.65 768.7 78.8 Q768.3 78.3 767.8 78.15 768.1 81.2 768.85 83.0 769.2 83.95 769.85 84.75 771.55 83.1 773.65 79.75 L773.05 81.4 773.2 81.1 774.15 79.15 773.8 79.65 775.15 76.95 Q774.65 76.6 773.7 76.4 L772.2 75.75 773.05 75.6 772.4 74.8 771.6 74.1 772.2 74.1 772.75 74.05 Q771.25 73.25 770.15 71.5 L770.8 71.8 771.15 71.85 770.45 71.15 771.95 71.65 Q772.9 71.65 773.5 71.15 773.0 70.55 772.75 70.5 772.9 70.4 773.3 70.25 L773.7 69.95 771.65 69.55 Q773.5 69.55 774.8 68.95 776.5 68.15 777.5 66.3 L776.8 67.1 776.9 66.7 776.85 66.75 Q776.9 66.3 777.3 65.65 L777.65 64.65 Q777.05 64.85 776.7 65.25 L777.15 64.45 773.7 65.4 770.3 65.65 Q770.8 64.8 772.2 64.5 L773.2 64.3 774.2 64.0 Q775.85 63.1 777.35 60.7 776.8 60.8 776.1 61.35 L774.95 62.3 Q775.75 61.65 776.55 60.35 L778.0 58.0 776.25 59.05 Q777.85 57.55 778.65 55.7 779.45 53.8 779.75 50.6 779.25 50.8 778.9 51.3 L778.0 52.2 778.55 49.65 777.35 50.65 779.2 48.15 780.7 45.45 Q779.75 45.35 778.8 44.55 L779.55 44.3 780.2 44.15 Q778.55 43.65 777.6 41.9 L779.4 42.4 778.75 41.75 779.4 41.7 780.05 41.6 778.95 41.05 777.85 40.25 Q779.75 41.3 782.25 39.3 L782.4 39.0 781.95 39.2 782.6 38.7 784.15 34.4 Q783.65 34.75 783.5 35.05 L783.75 32.5 782.95 33.5 781.65 34.05 783.05 31.85 784.45 29.75 Q784.85 28.1 784.85 26.0 L785.3 25.65 785.6 28.4 Q785.65 30.1 786.2 31.2 L785.95 30.8 786.2 31.7 785.8 31.4 786.1 32.05 785.75 31.7 Q786.45 34.1 787.15 34.75 786.55 34.7 786.25 34.05 L786.75 35.5 786.25 34.9 787.4 37.65 Q788.3 39.55 789.4 40.1 788.6 39.85 787.55 38.7 L788.95 40.65 Q788.1 40.35 787.5 39.5 788.0 41.4 789.45 43.35 L791.95 46.15 Q791.05 46.5 789.6 45.6 L791.05 47.35 Q789.55 47.0 788.35 45.2 L789.25 47.15 788.15 46.0 789.1 48.9 790.05 51.9 Q790.55 53.25 791.45 54.45 L792.95 56.55 792.0 55.95 791.15 55.25 Q791.65 56.4 792.6 57.2 L794.2 58.5 Q792.1 57.95 790.85 57.0 L791.3 57.95 791.7 58.95 790.85 58.4 790.2 57.35 790.2 57.95 790.7 58.6 790.2 58.1 790.2 58.15 791.45 59.85 791.2 59.75 Q792.25 61.15 793.75 61.45 L793.3 61.35 794.05 62.1 793.75 62.1 793.75 64.0 793.1 64.0 Q793.2 64.8 793.75 65.5 L793.75 65.65 793.45 65.65 793.75 65.95 793.75 66.2 793.3 65.75 792.95 65.65 793.75 67.25 793.75 100.95 791.65 98.9 Q790.25 97.3 789.45 95.7 L789.75 95.7 790.75 96.5 789.9 95.75 790.25 95.75 Q789.7 95.2 789.7 94.6 L790.55 94.7 790.4 94.45 Q791.3 95.35 793.55 94.95 792.45 95.1 791.65 94.45 L789.95 93.0 790.4 93.1 Q789.1 92.7 788.2 91.7 L788.45 91.75 Q787.7 91.05 787.5 90.6 L787.5 90.55 787.85 90.9 787.5 90.45 787.5 90.1 788.0 90.75 788.65 91.25 788.1 89.85 Q789.1 90.65 790.9 91.25 L789.55 90.25 Q788.75 89.65 788.35 88.85 L789.9 89.85 788.65 88.35 Q788.0 87.55 787.65 86.6 L787.0 84.55 786.35 82.6 787.2 83.45 786.55 82.05 Q787.5 83.4 788.75 83.75 L787.55 82.5 Q788.75 83.25 789.55 83.1 L787.55 81.05 Q786.4 79.6 786.1 78.35 786.55 79.0 787.25 79.25 L786.2 77.85 Q787.0 78.7 787.65 78.95 786.75 78.5 786.05 77.2 L785.25 75.3 785.65 75.75 785.25 74.7 Q785.45 75.2 785.95 75.3 785.45 74.8 784.95 73.2 L785.25 73.45 785.0 73.05 785.3 73.25 785.15 72.65 785.4 72.9 Q784.95 72.15 785.0 71.05 L784.85 69.25 Q784.65 69.3 784.5 69.45 L783.9 71.8 Q783.55 71.95 782.6 73.05 L781.3 74.2 782.45 74.05 782.15 74.2 782.55 74.05 782.45 74.05 783.2 73.45 782.85 75.05 783.4 74.7 781.9 77.35 781.3 77.55 781.75 77.5 781.6 77.7 Q779.35 78.65 777.8 77.75 L779.55 78.85 778.4 78.85 778.95 79.3 777.45 78.8 Q778.15 80.05 779.55 80.55 L778.95 80.55 778.3 80.6 Q779.1 81.2 779.9 81.4 L778.45 83.0 776.8 84.35 777.85 83.9 777.3 85.4 778.1 84.9 Q778.4 84.6 778.9 84.6 L777.65 87.75 Q776.9 88.85 775.45 89.6 L776.9 89.15 775.6 90.45 774.5 91.35 774.6 91.35 775.15 91.05 776.25 90.75 775.4 91.55 Q776.4 91.85 776.85 92.5 L774.0 92.35 773.4 92.55 771.6 92.65 770.35 92.85 770.5 93.3 772.9 93.35 775.9 93.15 775.55 93.6 776.35 93.3 775.55 94.6 775.6 94.55 775.45 94.85 776.2 94.4 Q775.15 95.5 773.65 95.75 L773.0 95.85 775.55 96.2 773.55 96.65 774.45 97.15 774.15 97.45 773.85 97.75 Q774.35 98.35 775.25 98.25 776.05 98.2 776.7 97.75 L776.05 98.45 776.35 98.4 777.0 98.1 Q775.95 99.8 774.5 100.6 L775.05 100.65 775.6 100.6 774.9 101.25 774.2 101.95 774.6 102.1 775.05 102.2 773.65 102.75 Q772.6 102.9 772.25 103.3 L772.85 104.65 752.95 104.65 753.15 104.45 Q753.95 103.5 754.3 102.4 L753.75 102.9 754.25 101.9 753.6 102.5 754.3 100.8 753.1 101.95 Q753.8 100.9 753.95 99.65 L754.1 96.85 Q753.4 98.4 751.9 99.5 750.3 100.65 749.35 100.15 L752.5 96.85 Q754.2 94.9 755.2 92.65 L755.25 92.55 755.2 92.55 754.9 92.55 753.75 93.5 754.7 92.55 754.3 92.5 754.7 92.05 754.85 91.75 755.05 90.9 754.1 90.9 Q754.1 90.65 754.25 90.55 753.15 91.75 750.75 90.75 751.9 91.2 752.95 90.3 L753.8 89.45 Q754.2 89.05 754.55 88.8 L754.6 88.7 754.75 88.55 754.85 88.5 754.6 88.5 754.9 88.4 Q756.0 87.95 756.85 86.9 L756.65 86.95 757.25 86.15 757.8 85.35 757.4 85.8 757.9 85.15 757.9 84.6 757.25 85.55 756.45 86.15 757.25 84.25 Q756.15 85.15 754.25 85.65 L754.05 85.7 754.2 85.55 755.55 84.45 755.7 84.4 755.85 84.25 M793.75 101.45 L793.75 102.35 793.45 103.05 793.55 101.45 793.75 101.45 M793.45 101.45 Q793.2 101.9 793.2 102.85 L793.2 104.5 791.95 101.9 Q791.7 102.4 791.8 103.5 L791.8 104.65 791.5 104.65 790.9 103.5 789.9 102.25 789.8 102.05 790.4 102.5 789.8 101.3 790.85 102.2 Q790.25 101.4 790.2 100.6 L790.2 98.7 Q790.75 99.8 792.1 100.75 L793.45 101.45 M691.2 57.0 L691.4 59.2 691.55 59.9 691.8 60.15 691.8 60.2 691.85 60.25 692.0 60.5 692.0 60.55 692.05 60.65 692.15 60.65 692.05 60.7 692.85 61.95 Q693.8 63.7 694.25 64.05 L693.0 63.55 692.2 62.6 692.5 65.0 691.85 64.35 Q692.5 66.6 693.4 68.5 L693.95 68.95 693.55 68.8 693.65 69.1 Q696.0 71.0 697.85 69.95 L696.8 70.7 695.8 71.3 696.45 71.35 697.1 71.45 Q696.6 71.85 696.45 72.0 L697.3 71.7 698.1 71.5 Q697.15 73.25 695.65 73.75 L696.3 73.9 696.95 74.05 Q696.1 74.8 695.15 75.0 695.7 76.3 696.6 77.55 L698.35 79.9 697.25 78.95 697.75 81.35 696.9 80.55 696.0 79.8 Q696.3 82.95 697.1 84.75 697.85 86.5 699.35 87.9 L697.75 86.9 699.05 89.2 700.5 90.95 699.5 90.15 698.35 89.5 Q699.8 91.85 701.35 92.65 L702.25 92.95 703.3 93.15 Q704.55 93.45 705.1 94.25 L701.85 93.95 698.55 93.1 698.9 93.8 698.05 93.2 698.5 94.25 698.85 95.25 698.75 95.2 698.9 95.65 698.2 94.85 Q699.15 96.65 700.8 97.4 L703.8 97.95 701.85 98.4 702.7 98.9 702.35 99.15 702.05 99.5 Q702.55 100.0 703.5 99.95 L704.95 99.4 704.25 100.15 704.6 100.05 705.25 99.85 Q704.15 101.55 702.8 102.25 L703.3 102.35 703.8 102.35 703.15 103.0 702.4 103.7 702.85 103.85 703.3 103.85 Q702.8 104.25 701.85 104.45 L701.1 104.65 682.35 104.65 682.5 104.1 682.0 104.65 682.5 103.55 681.8 104.15 682.5 102.5 681.35 103.65 Q682.0 102.65 682.25 101.4 L682.35 98.55 Q681.55 100.05 680.1 101.25 678.5 102.4 677.55 101.8 L680.7 98.6 Q682.35 96.6 683.4 94.3 L683.45 94.25 683.3 94.25 683.15 94.3 681.95 95.25 682.95 94.3 682.5 94.25 682.9 93.75 683.1 93.45 683.3 92.65 682.3 92.55 682.45 92.25 Q681.35 93.45 679.0 92.5 680.1 92.85 681.2 92.05 L682.1 91.2 682.75 90.55 682.8 90.4 682.95 90.3 682.95 90.25 683.1 90.15 Q682.95 90.15 682.9 90.25 L683.1 90.15 685.15 88.65 684.9 88.7 686.1 87.05 Q685.85 87.15 685.6 87.45 L686.1 86.9 686.15 86.3 685.45 87.25 684.85 87.75 684.65 87.85 Q684.7 87.4 685.45 85.95 684.35 86.8 682.45 87.3 L682.25 87.4 682.45 87.25 683.85 86.15 683.9 86.15 684.05 85.95 685.2 84.35 684.35 85.0 683.85 85.35 683.55 85.5 683.45 85.55 683.55 85.5 683.7 85.2 684.9 83.6 684.9 83.55 685.6 82.5 685.95 81.85 686.25 81.1 686.8 79.25 686.95 78.8 687.1 78.3 687.25 77.9 687.35 77.55 688.05 75.5 687.05 76.6 687.85 74.7 Q686.65 76.4 685.3 76.75 L686.65 75.15 Q685.3 75.95 684.4 75.6 L684.8 75.15 686.75 72.95 687.9 71.15 688.0 71.0 688.5 69.8 688.65 69.25 Q688.05 70.1 687.25 70.35 L688.65 68.45 686.9 69.8 688.15 68.65 688.65 67.85 Q688.65 67.65 688.8 67.5 L689.5 65.75 689.65 65.45 689.9 64.85 689.35 65.45 689.6 64.7 689.9 64.0 Q689.5 64.65 689.1 64.7 L690.4 61.8 690.05 62.15 690.3 61.5 689.95 61.8 690.15 61.0 689.95 61.3 690.3 60.0 690.45 58.65 690.45 58.5 690.45 58.1 690.55 57.55 690.75 55.95 691.2 56.35 691.2 57.0 M670.4 81.65 L671.75 82.95 Q670.8 83.55 669.25 82.45 L669.1 82.35 Q667.5 81.1 666.75 79.5 L666.85 82.5 Q667.05 83.75 667.8 84.9 L666.55 83.65 Q666.7 84.4 667.3 85.4 L666.55 84.75 667.15 85.95 666.55 85.35 Q666.85 86.45 667.55 87.4 L667.7 87.55 668.15 87.95 669.1 88.9 669.25 89.05 669.2 89.0 669.25 89.05 669.4 89.15 670.05 89.85 669.55 89.45 669.45 89.45 669.45 89.5 Q670.25 90.95 671.75 92.2 673.1 93.35 674.3 93.45 672.7 93.6 671.0 92.15 L672.25 93.75 671.5 93.45 Q673.1 95.2 674.5 95.55 L674.2 95.35 674.3 95.35 674.95 95.7 674.2 96.05 676.75 95.75 Q674.7 96.95 671.6 95.75 L673.55 97.45 671.3 97.25 672.25 98.45 671.15 98.6 669.25 98.9 670.4 98.85 671.6 98.75 670.05 99.2 670.55 99.2 Q670.1 99.65 669.1 99.85 L667.45 100.15 669.55 100.05 671.6 100.05 670.5 100.6 672.3 100.5 670.7 100.95 669.05 101.0 671.6 101.25 673.05 100.95 673.25 100.95 674.0 101.7 674.3 101.9 673.6 102.2 Q673.75 102.1 674.35 101.95 674.65 102.1 675.0 102.4 674.85 102.4 674.8 102.5 L672.8 103.2 Q671.75 103.5 671.3 103.85 L671.0 103.8 671.05 104.0 671.05 104.1 671.15 104.1 671.35 104.45 671.05 104.6 670.85 104.65 641.9 104.65 642.3 104.3 640.65 104.65 637.6 104.65 637.55 104.65 639.75 104.4 Q641.1 103.95 641.75 102.75 638.55 103.85 636.65 103.3 L638.65 102.85 640.65 102.4 639.45 102.65 Q639.8 102.25 640.55 101.9 641.6 101.3 641.75 101.25 643.25 100.35 643.75 99.0 L641.35 99.8 638.85 100.6 Q639.15 100.3 639.5 100.15 L636.9 99.95 638.65 99.4 640.45 99.0 Q642.65 98.35 643.8 96.95 L643.3 97.15 644.3 96.2 643.25 96.2 Q644.6 95.4 645.4 93.75 L645.25 93.8 644.95 93.95 644.1 94.55 644.4 94.15 641.05 95.35 Q643.3 93.9 646.2 89.15 L645.65 90.75 645.85 90.45 646.8 88.5 646.45 89.05 647.75 86.3 Q647.3 85.95 646.3 85.7 645.25 85.5 644.85 85.15 L645.7 84.9 644.95 84.2 644.25 83.45 644.85 83.55 645.35 83.45 Q643.9 82.65 642.8 80.9 L643.45 81.2 643.8 81.25 643.1 80.45 644.6 81.0 Q645.5 81.05 646.05 80.45 L645.4 79.9 645.9 79.6 646.35 79.35 644.25 78.85 647.4 78.35 Q649.05 77.55 650.15 75.65 L649.4 76.55 649.55 76.0 649.5 76.1 649.85 75.0 650.3 74.0 649.35 74.65 649.8 73.75 646.35 74.7 642.95 75.0 Q643.45 74.2 644.85 73.9 L645.85 73.7 646.85 73.4 Q648.45 72.5 650.0 70.05 649.4 70.2 648.75 70.7 L647.75 71.55 649.2 69.75 650.6 67.35 648.9 68.35 Q650.5 66.9 651.3 65.1 652.05 63.1 652.4 59.9 651.9 60.15 651.55 60.65 L650.65 61.5 651.15 59.05 650.0 60.0 651.85 57.55 653.35 54.9 Q652.35 54.65 651.45 53.85 L652.2 53.7 652.85 53.55 Q651.15 53.05 650.2 51.25 L651.95 51.75 651.3 51.15 652.05 51.1 652.7 50.95 651.6 50.35 650.5 49.55 Q652.4 50.65 654.9 48.7 L655.05 48.4 654.6 48.55 655.2 48.05 Q656.15 46.05 656.8 43.7 L656.05 44.45 656.35 41.9 655.55 42.9 654.3 43.45 655.7 41.25 Q656.7 39.4 657.1 39.05 657.5 37.45 657.5 35.35 657.75 35.1 657.95 35.0 L658.25 37.8 Q658.3 39.5 658.85 40.5 L658.55 40.25 658.85 41.1 658.45 40.75 658.7 41.45 658.4 41.05 Q659.1 43.45 659.7 44.1 659.2 44.1 658.9 43.35 L659.4 44.8 658.9 44.25 660.0 47.0 Q660.95 48.9 662.05 49.4 661.25 49.2 660.2 48.05 L661.6 50.0 Q660.7 49.75 660.15 48.85 660.55 50.7 662.1 52.7 L664.6 55.45 Q663.65 55.9 662.2 55.0 L663.7 56.7 Q662.2 56.35 661.0 54.5 L661.9 56.55 660.8 55.4 661.75 58.3 662.7 61.2 Q663.2 62.7 664.05 63.85 L665.6 65.9 664.65 65.4 663.8 64.55 Q664.3 65.75 665.25 66.6 L666.85 67.85 Q664.75 67.35 663.5 66.3 L663.95 67.25 664.3 68.3 663.5 67.7 662.75 66.7 662.85 67.25 663.35 67.95 662.85 67.5 663.4 68.35 664.05 69.25 663.85 69.1 Q664.95 70.55 666.5 70.85 L665.95 70.75 667.0 71.8 667.95 72.75 Q669.05 73.55 670.25 73.2 667.7 74.2 666.65 72.95 L666.75 73.25 665.75 73.3 Q665.8 74.25 666.55 75.0 L666.1 75.05 667.15 76.1 665.9 75.05 665.6 75.05 Q666.7 77.4 668.45 79.6 L670.4 81.65 M669.45 89.45 L669.4 89.45 669.45 89.45 M671.65 103.95 L671.6 103.95 672.9 103.45 672.1 104.0 671.65 103.95 M770.45 88.35 L770.75 88.05 770.15 87.85 770.45 88.35 M771.45 85.15 L771.75 84.85 Q770.95 85.05 770.3 85.35 L771.15 86.2 769.9 85.4 769.7 85.5 770.85 87.45 770.95 87.6 771.65 86.9 770.6 86.9 Q771.95 86.0 772.75 84.4 L772.6 84.4 772.35 84.55 771.45 85.15 M771.0 87.75 L771.25 87.55 770.95 87.7 771.0 87.75" fill="#13582a" fill-rule="evenodd" stroke="none"/>
    <path d="M755.85 84.25 L755.7 84.4 Q754.3 84.25 753.65 83.8 L754.45 84.55 753.65 84.25 753.95 84.7 753.5 84.55 754.2 85.55 754.05 85.7 754.25 85.65 755.2 86.35 Q753.95 86.15 753.4 85.5 753.25 85.7 753.4 86.15 L753.6 86.8 753.45 86.65 753.6 87.1 753.75 87.3 754.9 88.4 754.6 88.5 754.85 88.5 754.75 88.55 754.6 88.7 754.4 88.65 754.55 88.8 Q754.2 89.05 753.8 89.45 L752.95 90.3 Q751.9 91.2 750.75 90.75 753.15 91.75 754.25 90.55 754.1 90.65 754.1 90.9 L755.05 90.9 754.85 91.75 754.25 91.4 754.7 92.05 754.3 92.5 754.7 92.55 753.75 93.5 754.9 92.55 755.2 92.55 755.2 92.65 Q754.2 94.9 752.5 96.85 L749.35 100.15 Q750.3 100.65 751.9 99.5 753.4 98.4 754.1 96.85 L753.95 99.65 Q753.8 100.9 753.1 101.95 L754.3 100.8 753.6 102.5 754.25 101.9 753.75 102.9 754.3 102.4 Q753.95 103.5 753.15 104.45 L752.95 104.65 746.1 104.65 746.9 103.8 744.5 104.65 739.75 104.65 741.2 104.45 742.8 103.85 742.5 103.95 Q742.6 103.85 743.25 103.65 L743.9 103.35 740.9 103.8 742.9 102.85 744.7 101.75 742.8 102.35 Q743.25 101.9 744.65 101.45 L746.5 100.8 746.6 100.8 746.8 100.65 746.9 100.6 747.4 100.15 747.6 99.95 747.85 99.7 747.55 99.85 747.05 100.0 746.65 100.05 746.6 100.15 746.4 100.2 746.15 100.2 746.1 100.3 745.45 100.5 746.1 100.15 746.25 100.05 746.5 99.85 746.6 99.85 746.65 99.8 747.1 99.4 747.3 99.2 747.3 99.15 747.2 99.15 746.9 99.2 745.35 99.5 746.3 99.05 744.85 99.25 743.3 99.55 740.75 99.35 742.5 99.25 744.05 98.75 742.3 98.85 742.9 98.6 743.4 98.4 Q742.65 98.25 741.25 98.4 L739.65 98.45 739.25 98.45 739.75 98.35 740.9 98.2 Q741.95 97.95 742.3 97.5 L741.65 97.5 743.4 97.0 742.15 97.1 741.05 97.15 742.9 96.95 744.75 96.6 745.7 96.15 747.2 95.2 745.45 95.5 748.7 94.0 746.15 94.3 746.0 94.3 746.1 94.3 746.4 94.15 746.9 93.95 747.75 93.6 746.8 93.65 746.6 93.65 745.85 93.6 746.3 93.35 Q746.5 93.2 746.95 93.15 L748.0 92.7 747.4 92.55 747.9 92.25 746.65 92.4 745.5 92.35 747.2 91.85 748.4 90.95 747.55 90.95 748.15 90.55 Q747.85 90.4 747.45 90.55 L748.05 89.95 745.5 90.0 746.4 89.8 747.2 89.45 746.9 89.3 747.45 89.15 746.6 89.2 745.7 89.2 746.95 88.8 748.15 88.1 747.3 88.1 748.0 87.75 746.3 87.3 748.2 87.25 749.9 86.5 748.7 86.75 750.25 85.5 749.65 85.65 750.25 85.3 749.15 85.55 749.95 85.15 747.6 85.55 745.3 85.55 746.25 85.3 745.05 85.3 Q745.45 85.15 746.6 84.75 L748.25 84.25 Q750.3 83.45 750.8 82.45 L750.55 82.45 750.9 82.05 750.6 82.05 750.75 82.0 749.3 81.9 750.0 81.7 750.7 81.25 750.45 81.2 751.2 80.75 749.5 81.0 750.95 79.9 750.75 79.95 751.05 79.5 749.9 79.9 750.7 79.25 751.35 78.4 Q751.4 78.0 751.85 77.7 L751.9 77.5 752.05 78.55 752.0 77.75 752.2 78.5 752.15 78.15 752.7 79.45 752.65 79.35 752.8 79.6 752.65 79.5 753.0 79.9 752.7 79.8 753.5 80.4 754.55 81.0 753.0 80.55 753.45 81.0 753.0 80.85 753.25 81.1 752.85 81.1 Q753.4 82.15 755.85 82.8 L754.75 82.65 753.65 82.35 754.55 83.15 754.25 83.15 755.25 83.75 754.45 83.4 755.85 84.25 M674.2 95.35 L674.05 95.25 675.15 94.9 676.2 94.45 675.6 94.3 676.1 94.0 674.95 94.15 673.75 94.1 675.35 93.6 Q676.3 93.2 676.7 92.65 L675.8 92.65 676.4 92.2 Q676.05 92.05 675.75 92.2 L676.3 91.7 673.75 91.75 674.55 91.45 Q675.1 91.35 675.35 91.1 L675.15 91.05 675.75 90.9 674.85 90.95 674.0 90.95 675.25 90.45 676.3 89.85 675.5 89.8 676.2 89.5 674.55 89.05 676.45 89.0 Q677.1 88.8 678.05 88.2 L676.9 88.4 678.45 87.25 677.9 87.4 Q678.05 87.1 678.5 87.05 L677.35 87.25 678.2 86.8 675.9 87.25 673.5 87.3 674.5 87.05 673.35 86.95 674.8 86.5 676.55 85.95 Q678.6 85.2 679.0 84.1 L678.8 84.1 679.1 83.75 678.8 83.8 679.0 83.65 677.5 83.65 678.3 83.4 678.95 83.0 678.65 82.85 679.4 82.5 677.7 82.75 679.15 81.65 679.0 81.7 679.3 81.25 678.15 81.65 678.85 81.0 679.3 80.4 679.45 80.25 679.55 80.15 679.55 80.1 Q679.65 79.75 680.1 79.35 L680.1 79.15 680.35 80.25 680.25 79.45 Q680.25 79.9 680.4 80.15 L680.4 79.9 680.9 81.1 680.85 81.1 681.0 81.35 680.85 81.25 681.3 81.55 680.9 81.5 681.7 82.15 682.75 82.65 681.2 82.2 681.65 82.75 681.3 82.6 681.5 82.85 681.05 82.85 681.5 83.3 Q682.0 83.8 683.1 84.2 L684.05 84.45 682.95 84.4 681.85 84.05 682.75 84.9 682.5 84.85 683.25 85.35 683.55 85.5 683.25 85.4 682.65 85.15 683.15 85.5 683.45 85.65 683.55 85.7 684.05 85.95 683.9 86.15 682.75 85.95 681.85 85.55 682.5 86.15 681.85 86.0 682.1 86.2 682.25 86.35 681.7 86.2 681.85 86.45 681.95 86.6 682.15 86.9 682.45 87.25 682.25 87.4 682.45 87.3 682.5 87.4 683.25 87.95 683.45 88.05 683.25 88.05 Q682.15 87.75 681.55 87.25 L681.55 87.85 681.8 88.5 681.65 88.4 681.8 88.8 682.0 89.0 682.25 89.3 682.3 89.35 682.5 89.6 682.75 89.8 683.1 90.15 682.9 90.25 Q682.95 90.15 683.1 90.15 L682.95 90.25 682.9 90.25 682.95 90.3 682.8 90.4 682.65 90.4 682.75 90.55 682.1 91.2 681.2 92.05 Q680.1 92.85 679.0 92.5 681.35 93.45 682.45 92.25 L682.3 92.55 683.3 92.65 683.1 93.45 682.5 93.15 682.9 93.75 682.5 94.25 682.95 94.3 681.95 95.25 683.15 94.3 683.3 94.25 683.4 94.3 Q682.35 96.6 680.7 98.6 L677.55 101.8 Q678.5 102.4 680.1 101.25 681.55 100.05 682.35 98.55 L682.25 101.4 Q682.0 102.65 681.35 103.65 L682.5 102.5 681.8 104.15 682.5 103.55 682.0 104.65 682.5 104.1 682.35 104.65 670.85 104.65 671.05 104.6 671.35 104.45 672.1 104.0 672.9 103.45 671.6 103.95 671.15 104.1 671.05 104.1 671.05 104.0 671.3 103.85 Q671.75 103.5 672.8 103.2 L674.8 102.5 Q674.85 102.4 675.0 102.4 L676.05 101.4 674.85 101.8 674.35 101.95 Q673.75 102.1 673.6 102.2 L674.3 101.9 674.7 101.6 675.6 100.8 673.6 101.25 674.55 100.75 673.25 100.95 673.05 100.95 671.6 101.25 669.05 101.0 670.7 100.95 672.3 100.5 670.5 100.6 671.6 100.05 669.55 100.05 667.45 100.15 669.1 99.85 Q670.1 99.65 670.55 99.2 L670.05 99.2 671.6 98.75 670.4 98.85 669.25 98.9 671.15 98.6 672.25 98.45 673.05 98.25 Q674.35 97.75 675.35 96.95 L673.7 97.15 Q675.0 96.85 677.0 95.7 L676.75 95.75 674.2 96.05 674.95 95.7 675.1 95.65 676.05 95.25 675.0 95.35 674.3 95.35 674.2 95.35 M715.7 91.85 L715.7 91.75 715.75 91.85 715.7 91.85 M716.8 90.9 L716.65 90.55 716.95 90.75 716.8 90.9 M717.2 90.45 L716.95 90.1 717.35 89.8 718.25 88.9 718.15 89.45 717.6 90.0 718.15 89.6 717.45 90.3 717.2 90.45 M716.65 89.7 L716.25 89.15 717.35 88.65 716.8 89.45 716.65 89.7 M715.9 88.35 L715.9 88.25 715.75 87.9 715.9 87.85 717.0 87.15 715.9 88.35 M715.6 87.45 L715.25 86.3 715.6 86.0 715.9 85.7 715.4 85.8 715.1 85.85 714.95 85.5 714.5 84.35 715.4 85.2 714.75 83.8 Q715.7 85.05 716.95 85.5 L715.75 84.25 Q717.0 84.9 717.8 84.75 L715.85 82.75 715.25 82.0 Q715.3 81.9 715.4 81.9 L715.2 81.9 714.9 81.5 715.2 81.4 715.9 81.1 715.9 81.0 715.85 81.05 716.55 80.05 715.7 80.55 715.05 80.05 715.2 79.8 714.9 79.9 714.75 79.6 715.3 79.3 714.6 79.45 714.3 78.95 714.6 78.8 715.7 78.15 714.1 78.5 714.0 78.35 715.2 78.0 715.45 77.85 716.65 76.95 716.4 76.95 717.0 76.4 Q716.55 76.55 716.2 76.8 L716.65 76.25 716.55 76.25 716.7 76.15 717.0 75.8 717.5 74.85 717.35 75.0 717.65 74.5 716.7 75.3 717.0 74.9 716.0 75.5 717.0 74.05 715.55 74.8 715.7 74.5 714.9 74.7 714.0 74.8 Q715.45 74.35 716.4 73.4 L714.95 73.75 715.75 73.1 716.5 72.5 715.85 72.75 716.65 71.95 715.55 72.3 716.25 71.8 715.75 72.0 716.85 71.15 717.2 70.5 Q716.8 70.85 716.05 71.05 L714.75 71.15 715.6 70.6 715.2 70.6 716.0 70.1 714.25 70.25 716.2 69.7 718.15 68.95 716.55 69.25 Q718.6 68.5 719.55 66.75 L718.3 67.55 Q717.5 67.95 716.95 67.8 L718.0 67.0 716.65 67.4 717.15 67.0 717.65 66.55 715.85 66.85 717.35 65.8 715.9 66.2 714.3 66.2 Q716.8 65.9 718.3 65.0 L719.4 63.9 718.95 63.9 719.1 63.7 718.1 64.2 720.05 62.45 720.2 62.25 720.4 61.8 720.3 61.95 720.5 61.3 720.5 60.65 718.55 61.5 Q719.6 60.95 720.3 59.6 L719.85 59.75 720.15 59.3 719.25 59.55 720.15 58.9 Q719.2 59.4 717.05 59.55 718.3 59.2 719.35 58.4 L718.45 58.75 719.5 58.1 719.25 58.15 720.2 57.3 Q719.4 57.5 719.05 57.65 L717.85 57.8 Q720.35 57.05 721.0 56.05 L720.65 56.05 720.85 55.75 720.4 55.9 720.85 55.4 719.25 55.85 Q719.85 55.7 720.3 55.25 L721.15 54.6 720.85 54.75 721.25 54.35 Q721.15 54.35 721.1 54.45 L721.25 54.2 721.15 54.2 721.75 52.9 721.75 53.25 721.9 52.55 721.8 53.35 721.95 52.2 722.05 52.4 722.6 53.2 723.25 54.1 724.05 54.75 722.85 54.35 723.2 54.8 723.0 54.75 Q723.4 55.25 724.5 55.9 L723.65 55.75 722.75 55.7 723.55 56.05 723.25 56.2 723.9 56.65 724.75 56.85 723.2 56.9 723.35 57.0 723.05 57.0 723.4 57.35 723.1 57.35 Q723.65 58.5 725.75 59.3 L729.15 60.35 727.95 60.4 728.95 60.7 726.5 60.65 724.0 60.2 724.85 60.65 723.7 60.4 724.35 60.8 723.8 60.65 725.4 61.9 724.15 61.65 Q725.1 62.25 725.8 62.45 L727.85 62.55 726.1 62.95 726.85 63.35 725.95 63.35 727.15 64.0 728.45 64.5 727.55 64.5 726.6 64.45 727.3 64.55 727.0 64.7 727.8 65.1 728.65 65.4 726.05 65.25 726.6 65.9 Q726.25 65.75 725.95 65.9 L726.55 66.3 725.9 66.3 725.3 65.8 Q724.8 64.5 724.8 62.75 L724.3 62.4 Q724.0 63.05 723.85 64.7 723.8 66.1 723.2 67.05 L723.5 66.75 723.2 67.5 Q723.5 67.25 723.65 67.25 L723.25 67.8 723.7 67.5 Q722.75 69.45 722.05 70.05 L723.1 69.4 722.4 70.6 723.05 70.2 721.65 72.5 Q720.5 74.05 719.2 74.5 L721.45 73.3 719.7 75.0 721.5 74.0 Q720.95 75.6 719.1 77.25 L716.0 79.5 Q717.15 79.9 718.95 79.15 L717.15 80.6 Q718.95 80.25 720.5 78.8 L719.9 79.65 719.4 80.45 720.7 79.45 719.55 81.9 718.4 84.4 716.7 86.5 715.6 87.45 M714.6 80.9 L714.45 80.55 714.6 80.4 715.1 80.75 714.6 80.9 M715.25 80.7 L714.9 80.15 714.95 80.1 715.7 80.55 715.25 80.7 M714.65 79.9 L714.5 79.65 714.75 79.9 714.65 79.9 M682.5 86.15 L682.75 86.2 682.5 86.15 M726.6 67.1 L727.0 67.25 728.65 67.8 727.4 67.85 727.2 67.85 727.05 67.65 726.6 67.1 M728.25 69.0 L728.3 69.0 728.25 69.0 M727.7 69.15 L727.35 69.15 727.3 69.15 727.15 69.0 727.7 69.15 M727.2 69.15 L726.35 69.0 727.3 69.45 728.25 69.8 726.4 69.75 726.35 69.0 726.2 68.2 727.15 69.0 727.05 69.0 727.2 69.15 M726.5 70.2 L728.75 71.05 727.0 70.75 Q728.0 71.65 729.45 72.15 L731.45 72.5 733.35 72.8 732.15 72.75 730.9 72.65 732.75 73.2 732.0 73.2 733.55 73.85 735.3 74.2 733.1 74.1 731.0 74.05 732.1 74.55 730.2 74.5 Q730.65 74.8 731.6 74.9 729.9 74.85 728.0 73.85 L727.8 73.6 728.35 73.75 727.65 73.3 Q726.5 71.7 725.65 69.75 L726.55 70.35 726.5 70.2 M732.65 75.05 L733.7 75.05 732.15 75.3 732.65 75.05 M730.9 77.85 L731.35 78.05 730.55 77.9 730.9 77.85 M731.3 78.7 L731.5 78.8 733.45 79.75 731.95 79.5 730.4 79.3 731.8 79.9 731.5 79.9 732.4 80.15 733.25 80.45 737.65 80.85 735.5 81.2 733.4 81.2 733.85 81.25 732.1 81.05 733.35 81.35 734.5 81.7 731.65 81.1 729.9 79.0 731.3 78.7 M733.05 84.05 L733.6 84.2 735.3 84.55 733.25 84.55 733.05 84.05 M733.2 84.55 L731.85 84.35 734.15 85.2 731.65 84.75 731.3 84.6 731.05 83.55 732.1 83.8 732.25 83.9 733.2 84.55 M731.6 85.55 L732.1 85.95 733.2 86.45 731.95 86.5 Q731.7 86.1 731.6 85.55 M732.0 86.75 L732.1 86.8 732.0 86.8 732.0 86.75 M732.1 86.8 L732.8 86.9 734.55 86.95 733.35 87.15 732.25 87.15 732.1 86.8 M732.3 87.3 L733.85 87.55 732.55 87.7 732.45 87.6 732.3 87.3 M732.65 87.9 L734.15 88.35 737.4 88.9 733.35 88.7 732.65 87.9 M733.6 89.0 L733.85 89.05 735.2 89.45 734.2 89.5 733.6 89.0 M734.3 92.0 L734.7 92.2 736.55 93.0 735.0 92.65 734.3 92.0 M736.55 93.8 L740.55 94.1 740.25 94.45 738.15 94.6 738.0 94.55 736.55 93.8 M707.45 83.95 L706.95 83.8 707.5 83.9 707.45 83.95 M715.05 85.5 L715.25 85.4 714.95 85.5 715.05 85.5 M734.5 95.05 L734.35 94.85 735.45 95.05 735.0 95.05 734.5 95.05 M739.6 94.85 L739.15 94.75 738.85 94.75 739.0 94.75 739.95 94.85 739.6 94.85 M734.5 96.35 L734.5 96.3 734.55 96.35 734.5 96.35 M734.2 95.75 L734.05 95.65 734.7 95.75 734.2 95.75" fill="#16614a" fill-rule="evenodd" stroke="none"/>
    <path d="M670.4 81.65 L671.15 81.05 671.0 81.05 671.75 80.15 671.45 80.4 671.75 80.05 671.8 79.75 671.35 80.25 670.85 80.6 671.35 79.5 Q670.55 80.1 669.3 80.4 L670.35 79.65 671.2 78.65 670.05 79.3 671.0 78.2 671.8 76.8 672.4 75.2 672.95 73.7 672.3 74.25 672.8 73.25 Q672.1 74.2 671.2 74.4 L672.15 73.45 Q671.2 74.0 670.7 73.75 L672.15 72.25 673.4 70.2 672.55 70.75 673.35 69.75 Q672.7 70.4 672.25 70.5 L673.5 69.25 674.15 67.7 673.85 68.05 674.15 67.25 673.6 67.65 674.45 66.05 674.2 66.25 674.45 65.9 674.2 66.05 674.35 65.5 674.2 65.75 674.5 64.3 674.7 62.75 674.95 62.95 Q674.95 64.05 675.25 64.95 L676.05 66.1 Q676.6 67.05 676.9 67.25 L676.1 67.0 675.65 66.45 675.8 67.85 675.35 67.5 676.3 69.75 676.7 70.05 676.45 69.95 676.55 70.1 Q678.0 71.15 679.15 70.55 L677.85 71.3 678.65 71.45 678.3 71.7 678.8 71.55 679.3 71.5 Q678.75 72.35 677.8 72.65 L678.6 72.9 677.5 73.4 Q677.9 74.35 679.45 76.15 L678.8 75.65 679.1 76.95 678.6 76.55 678.0 76.1 Q678.2 77.85 678.65 78.85 L679.55 80.1 679.55 80.15 679.45 80.25 Q679.25 80.1 679.1 80.1 L679.3 80.4 678.85 81.0 678.15 81.65 679.3 81.25 679.0 81.7 679.15 81.65 677.7 82.75 679.4 82.5 678.65 82.85 678.95 83.0 678.3 83.4 677.5 83.65 679.0 83.65 678.8 83.8 679.1 83.75 678.8 84.1 679.0 84.1 Q678.6 85.2 676.55 85.95 L674.8 86.5 673.35 86.95 674.5 87.05 673.5 87.3 675.9 87.25 678.2 86.8 677.35 87.25 678.5 87.05 Q678.05 87.1 677.9 87.4 L678.45 87.25 676.9 88.4 678.05 88.2 Q677.1 88.8 676.45 89.0 L674.55 89.05 676.2 89.5 675.5 89.8 676.3 89.85 675.25 90.45 674.0 90.95 674.85 90.95 675.75 90.9 675.15 91.05 675.35 91.1 Q675.1 91.35 674.55 91.45 L673.75 91.75 676.3 91.7 675.75 92.2 Q676.05 92.05 676.4 92.2 L675.8 92.65 676.7 92.65 Q676.3 93.2 675.35 93.6 L673.75 94.1 674.95 94.15 676.1 94.0 675.6 94.3 676.2 94.45 675.15 94.9 674.05 95.25 674.2 95.35 674.5 95.55 Q673.1 95.2 671.5 93.45 L672.25 93.75 671.0 92.15 Q672.7 93.6 674.3 93.45 673.1 93.35 671.75 92.2 670.25 90.95 669.45 89.5 L669.45 89.45 669.55 89.45 670.05 89.85 669.4 89.15 669.45 88.85 669.25 89.05 669.2 89.0 669.25 89.05 669.1 88.9 669.3 88.2 669.4 86.6 668.15 87.95 667.7 87.55 667.55 87.4 668.4 86.6 670.1 84.2 669.9 84.2 669.2 84.75 669.75 84.2 669.55 84.2 670.0 83.3 669.4 83.25 669.45 83.1 667.3 83.15 668.65 82.95 669.25 82.45 Q670.8 83.55 671.75 82.95 L670.4 81.65 M681.5 83.3 L682.6 83.6 Q683.4 83.75 683.75 84.2 L683.1 84.2 Q682.0 83.8 681.5 83.3 M671.35 104.45 L671.15 104.1 671.6 103.95 671.65 103.95 671.35 104.45 M671.05 104.0 L671.0 103.8 671.3 103.85 671.05 104.0 M675.0 102.4 Q674.65 102.1 674.35 101.95 L674.85 101.8 676.05 101.4 675.0 102.4 M674.3 101.9 L674.0 101.7 673.25 100.95 674.55 100.75 673.6 101.25 675.6 100.8 674.7 101.6 674.3 101.9 M672.25 98.45 L671.3 97.25 673.55 97.45 671.6 95.75 Q674.7 96.95 676.75 95.75 L677.0 95.7 Q675.0 96.85 673.7 97.15 L675.35 96.95 Q674.35 97.75 673.05 98.25 L672.25 98.45 M674.95 95.7 L674.3 95.35 675.0 95.35 676.05 95.25 675.1 95.65 674.95 95.7 M669.45 89.45 L669.4 89.45 669.45 89.45 M683.1 93.45 L682.9 93.75 682.5 93.15 683.1 93.45 M683.3 94.25 L683.45 94.25 683.4 94.3 683.3 94.25 M682.75 86.2 L682.95 86.2 682.25 86.45 681.85 86.45 681.7 86.2 682.25 86.35 682.1 86.2 682.45 86.2 682.75 86.2 M682.0 86.65 L682.25 86.8 682.15 86.9 681.95 86.6 682.0 86.65 M682.5 87.4 L682.75 87.4 683.6 87.1 683.25 87.55 Q683.3 87.45 683.4 87.45 L683.85 87.3 683.25 87.95 682.5 87.4 M683.25 88.05 L682.3 88.7 682.35 88.7 682.9 88.7 682.95 88.7 682.75 88.9 682.5 89.05 682.25 89.3 682.0 89.0 681.8 88.8 681.65 88.4 681.8 88.5 681.55 87.85 681.55 87.25 Q682.15 87.75 683.25 88.05 M740.55 94.1 L740.7 93.8 Q740.1 93.75 739.5 93.3 L740.4 93.15 Q739.4 92.85 738.85 92.0 L739.9 92.2 739.5 91.9 740.25 91.85 739.0 91.1 Q740.1 91.7 741.55 90.65 L741.65 90.55 741.35 90.6 741.7 90.3 742.6 88.1 742.2 88.5 742.35 87.15 741.95 87.7 741.2 87.95 742.0 86.9 742.8 85.8 743.0 83.8 743.25 83.65 743.45 85.15 743.85 86.5 743.7 86.3 743.85 86.8 743.6 86.6 743.75 86.95 743.55 86.75 Q743.95 87.95 744.35 88.35 L743.85 87.95 744.1 88.7 743.85 88.4 744.5 89.8 Q745.0 90.75 745.65 91.05 L744.55 90.3 745.35 91.35 744.55 90.75 Q744.85 91.7 745.7 92.7 L746.3 93.35 745.85 93.6 746.6 93.65 746.9 93.95 746.4 94.15 745.7 93.9 746.1 94.3 746.0 94.3 746.15 94.3 746.6 94.75 Q745.7 94.55 745.05 93.65 L745.6 94.7 744.9 94.1 745.45 95.5 745.5 95.55 745.7 96.15 744.75 96.6 742.9 96.95 741.05 97.15 742.15 97.1 743.4 97.0 741.65 97.5 742.3 97.5 Q741.95 97.95 740.9 98.2 L739.75 98.35 740.1 96.45 Q739.8 96.5 739.6 96.8 L739.1 97.25 739.4 95.9 738.7 96.45 739.3 95.75 739.95 94.9 739.95 94.85 740.25 94.45 740.55 94.1 M739.65 98.45 L741.25 98.4 Q742.65 98.25 743.4 98.4 L742.9 98.6 742.3 98.85 744.05 98.75 742.5 99.25 740.75 99.35 743.3 99.55 744.85 99.25 746.3 99.05 745.35 99.5 746.9 99.2 747.1 99.4 746.65 99.8 746.45 99.7 746.6 99.85 746.5 99.85 746.25 100.05 746.1 99.85 746.1 100.15 745.45 100.5 746.1 100.3 746.5 100.8 744.65 101.45 Q743.25 101.9 742.8 102.35 L744.7 101.75 742.9 102.85 740.9 103.8 743.9 103.35 743.25 103.65 Q742.6 103.85 742.5 103.95 L742.8 103.85 741.2 104.45 739.75 104.65 738.65 104.65 738.8 104.45 738.6 104.65 738.45 104.65 738.5 104.6 738.45 104.65 738.85 103.55 738.35 103.85 738.6 103.5 736.6 103.95 734.65 104.1 Q734.95 103.65 735.75 103.55 L736.9 103.3 Q737.85 102.85 738.7 101.6 738.35 101.6 738.0 101.9 L737.4 102.35 738.3 101.45 739.1 100.2 738.15 100.75 739.1 99.7 739.25 99.5 739.45 99.05 739.65 98.45 M747.2 99.15 L747.3 99.15 747.3 99.2 747.2 99.15 M746.1 100.3 L746.15 100.2 746.4 100.5 746.1 100.3 M746.4 100.2 L746.6 100.15 746.65 100.05 746.9 100.6 746.8 100.65 746.5 100.35 746.4 100.2 M747.05 100.0 L747.55 99.85 747.6 99.95 747.4 100.15 747.05 100.0 M744.5 104.65 L746.9 103.8 746.1 104.65 744.5 104.65" fill="#21846a" fill-rule="evenodd" stroke="none"/>
    <path d="M810.1 -23.95 L810.3 -24.65 810.6 -24.15 810.1 -23.95 M774.3 104.45 L773.95 104.8 773.5 104.35 774.3 104.45 M529.15 105.15 L528.05 106.3 529.0 104.35 529.15 105.15" fill="#fee745" fill-rule="evenodd" stroke="none"/>
    <path d="M529.5 105.3 L529.15 105.4 529.15 105.15 529.45 104.65 529.5 105.3" fill="#fde751" fill-rule="evenodd" stroke="none"/>
    <path d="M475.8 -37.7 L475.85 -37.3 475.7 -37.7 475.8 -37.7" fill="#f5ea69" fill-rule="evenodd" stroke="none"/>
    <path d="M809.25 -24.75 L809.15 -24.1 808.2 -23.5 808.5 -23.05 810.1 -23.95 774.45 103.9 774.3 104.45 773.5 104.35 774.4 103.75 767.9 94.9 800.1 -17.45 798.65 -17.6 Q656.85 -29.85 515.1 -15.0 L514.3 -15.4 505.9 -20.35 504.75 -20.15 504.75 -20.25 505.25 -20.3 505.9 -20.35 Q659.0 -38.8 809.25 -24.75 M536.2 94.8 L536.5 96.5 535.5 95.85 536.2 94.8 M808.2 -23.5 L798.65 -17.6 808.2 -23.5 M774.45 103.9 L774.4 103.75 774.45 103.9" fill="#ff9900" fill-rule="evenodd" stroke="none"/>
    <path d="M536.5 96.5 Q653.75 86.2 767.9 94.9 L774.4 103.75 773.5 104.35 Q653.25 92.9 529.5 105.3 L529.45 104.65 535.5 95.85 536.5 96.5 M772.4 103.25 L773.5 104.35 772.4 103.25" fill="#fed865" fill-rule="evenodd" stroke="none"/>
    <path d="M514.3 -15.4 L536.2 94.8 535.5 95.85 529.45 104.65 529.0 104.35 504.75 -20.15 505.9 -20.35 514.3 -15.4" fill="#fecd3a" fill-rule="evenodd" stroke="none"/>
    <path d="M810.1 -23.95 L810.6 -24.15 838.05 -38.8 795.65 125.5 795.0 125.4 794.6 125.4 773.95 104.8 774.3 104.45 774.45 103.9 810.1 -23.95" fill="url(#gradient5)" fill-rule="evenodd" stroke="none"/>
    <path d="M810.6 -24.15 L810.3 -24.65 810.2 -24.65 809.25 -24.75 Q659.0 -38.8 505.9 -20.35 L505.25 -20.3 504.75 -20.25 504.75 -20.15 529.0 104.35 528.05 106.3 517.65 129.0 516.4 129.05 475.85 -37.3 475.8 -37.7 Q666.8 -66.1 838.25 -39.7 L838.05 -38.8 810.6 -24.15 M503.95 -20.8 L475.85 -37.3 503.95 -20.8" fill="url(#gradient6)" fill-rule="evenodd" stroke="none"/>
    <path d="M773.95 104.8 L794.6 125.4 Q674.45 112.6 517.65 129.0 L528.05 106.3 529.15 105.15 529.15 105.4 529.5 105.3 Q653.25 92.9 773.5 104.35 L773.95 104.8" fill="url(#gradient7)" fill-rule="evenodd" stroke="none"/>
    <path d="M808.5 -23.05 L810.1 -23.95 M773.5 104.35 L772.4 103.25" fill="none" stroke="#cc0000" stroke-linecap="round" stroke-linejoin="round" stroke-width="0.25"/>
    <path d="M810.3 -24.65 L810.1 -23.95 810.6 -24.15 838.05 -38.8 838.25 -39.7 Q666.8 -66.1 475.8 -37.7 L475.7 -37.7 475.85 -37.3 503.95 -20.8 M810.3 -24.65 L810.2 -24.65 809.25 -24.75 M809.15 -24.1 L808.2 -23.5 798.65 -17.6 Q656.85 -29.85 515.1 -15.0 L514.3 -15.4 536.2 94.8 536.5 96.5 Q653.75 86.2 767.9 94.9 L774.4 103.75 774.45 103.9 774.3 104.45 773.5 104.35 773.95 104.8 794.6 125.4 795.0 125.4 795.65 125.5 838.05 -38.8 M767.9 94.9 L800.1 -17.45 798.65 -17.6 M529.5 105.3 L529.15 105.4 529.15 105.15 528.05 106.3 517.65 129.0 Q674.45 112.6 794.6 125.4 M504.75 -20.25 L504.75 -20.15 M505.9 -20.35 L505.25 -20.3 504.75 -20.25 M505.9 -20.35 L514.3 -15.4 M535.5 95.85 L529.45 104.65 529.15 105.15 529.0 104.35 528.05 106.3 M536.2 94.8 L535.5 95.85 M475.85 -37.3 L516.4 129.05 517.65 129.0" fill="none" stroke="#c83d02" stroke-linecap="round" stroke-linejoin="round" stroke-width="2.25"/>
  </g>
  <defs>
    <radialGradient cx="0" cy="0" gradientTransform="matrix(0.0808, 0.0, 0.0, 0.0808, 749.55, 37.35)" gradientUnits="userSpaceOnUse" id="gradient0" r="819.2" spreadMethod="pad">
      <stop offset="0.06274509803921569" stop-color="#ffffff"/>
      <stop offset="0.615686274509804" stop-color="#1cade3"/>
    </radialGradient>
    <linearGradient gradientTransform="matrix(-0.0104, 0.0572, -0.0831, -0.015, 581.05, 81.9)" gradientUnits="userSpaceOnUse" id="gradient1" spreadMethod="pad" x1="-819.2" x2="819.2">
      <stop offset="0.06274509803921569" stop-color="#ffffff"/>
      <stop offset="1.0" stop-color="#0099cc"/>
    </linearGradient>
    <radialGradient cx="0" cy="0" gradientTransform="matrix(0.0808, 0.0, 0.0, 0.0808, 749.55, 37.35)" gradientUnits="userSpaceOnUse" id="gradient2" r="819.2" spreadMethod="pad">
      <stop offset="0.06274509803921569" stop-color="#ffffff"/>
      <stop offset="0.615686274509804" stop-color="#0099cc"/>
    </radialGradient>
    <radialGradient cx="0" cy="0" gradientTransform="matrix(0.04, 0.0, 0.0, 0.04, 752.7, 39.9)" gradientUnits="userSpaceOnUse" id="gradient3" r="819.2" spreadMethod="pad">
      <stop offset="0.3333333333333333" stop-color="#ffffff"/>
      <stop offset="0.6823529411764706" stop-color="#ffffff" stop-opacity="0.0"/>
    </radialGradient>
    <linearGradient gradientTransform="matrix(0.0285, -0.0804, 0.156, 0.0553, 668.6, 99.65)" gradientUnits="userSpaceOnUse" id="gradient4" spreadMethod="pad" x1="-819.2" x2="819.2">
      <stop offset="0.0" stop-color="#006600"/>
      <stop offset="1.0" stop-color="#99cc00"/>
    </linearGradient>
    <linearGradient gradientTransform="matrix(0.0312, 0.0027, -0.0089, 0.1018, 805.2, 42.25)" gradientUnits="userSpaceOnUse" id="gradient5" spreadMethod="pad" x1="-819.2" x2="819.2">
      <stop offset="0.0" stop-color="#ff9900"/>
      <stop offset="0.996078431372549" stop-color="#fed32c"/>
    </linearGradient>
    <linearGradient gradientTransform="matrix(-0.0056, -0.1066, 0.2207, -0.0116, 660.8, 33.95)" gradientUnits="userSpaceOnUse" id="gradient6" spreadMethod="pad" x1="-819.2" x2="819.2">
      <stop offset="0.0" stop-color="#ff9900"/>
      <stop offset="0.996078431372549" stop-color="#fed32c"/>
    </linearGradient>
    <linearGradient gradientTransform="matrix(-0.0013, 0.0238, -0.1685, -0.0089, 656.65, 116.7)" gradientUnits="userSpaceOnUse" id="gradient7" spreadMethod="pad" x1="-819.2" x2="819.2">
      <stop offset="0.0" stop-color="#ff9900"/>
      <stop offset="0.996078431372549" stop-color="#fed32c"/>
    </linearGradient>
  </defs>
</svg>
