<?xml version="1.0" encoding="UTF-8" standalone="no"?>
<svg
   height="292"
   width="302"
   version="1.1"
   id="svg66"
   sodipodi:docname="85.svg"
   inkscape:version="1.1.1 (3bf5ae0d25, 2021-09-20)"
   xmlns:inkscape="http://www.inkscape.org/namespaces/inkscape"
   xmlns:sodipodi="http://sodipodi.sourceforge.net/DTD/sodipodi-0.dtd"
   xmlns="http://www.w3.org/2000/svg"
   xmlns:svg="http://www.w3.org/2000/svg">
  <defs
     id="defs70" />
  <sodipodi:namedview
     id="namedview68"
     pagecolor="#ffffff"
     bordercolor="#666666"
     borderopacity="1.0"
     inkscape:pageshadow="2"
     inkscape:pageopacity="0.0"
     inkscape:pagecheckerboard="0"
     showgrid="false"
     inkscape:zoom="3.1417756"
     inkscape:cx="150.39266"
     inkscape:cy="119.67755"
     inkscape:window-width="3440"
     inkscape:window-height="1330"
     inkscape:window-x="-12"
     inkscape:window-y="-12"
     inkscape:window-maximized="1"
     inkscape:current-layer="svg66" />
  <g
     transform="translate(170.70651,137.79415)"
     id="g64">
    <path
       d="m 50.65,141.4 q -36.5,12.5 -81.85,12.1 -45.45,-0.35 -94.1,-13.85 -48.65,-13.55 -43.9,-30.05 4.75,-16.5 56.05,-25.25 51.25,-8.8 90.5,-5.45 39.25,3.4 78.75,9.9 39.5,6.45 35.3,23.3 -4.25,16.75 -40.75,29.3"
       fill="#000000"
       fill-opacity="0.2"
       fill-rule="evenodd"
       stroke="none"
       id="path2" />
    <path
       d="m -148.15,-68.9 6.95,-3.45 q 14.55,-6.75 29.3,-10.15 14.75,-3.5 27.4,-4.8 l 25.25,-2.35 q 12.35,-0.8 28.2,-0.8 15.85,-0.05 31.1,0.8 18.5,2.05 32.8,5.05 14.3,2.95 25.15,7.45 10.25,4.2 18.3,10 l -1.05,20.2 q -3.75,2.7 -9.6,1.15 -5.85,-1.55 -14.7,-7.3 -8.85,-5.75 -23.45,-8.1 l -26.95,-3.95 -28.1,-1.95 q -16,-0.35 -31.15,0.75 -15.9,1.05 -30,3.35 -14.45,2.2 -28.05,6.6 -13.35,4.4 -32.15,13.65 l 0.75,-26.15"
       fill="#ffcc00"
       fill-rule="evenodd"
       stroke="none"
       id="path4" />
    <path
       d="m 76.3,-67.15 q -8.05,-5.8 -18.3,-10 -10.85,-4.5 -25.15,-7.45 -14.3,-3 -32.8,-5.05 -15.25,-0.85 -31.1,-0.8 -15.85,0 -28.2,0.8 l -25.25,2.35 q -12.65,1.3 -27.4,4.8 -14.75,3.4 -29.3,10.15 l -6.95,3.45"
       fill="none"
       stroke="#ff9900"
       stroke-linecap="butt"
       stroke-linejoin="miter-clip"
       stroke-miterlimit="3"
       stroke-width="2"
       id="path6" />
    <path
       d="m -148.15,-68.9 -0.75,26.15 q 18.8,-9.25 32.15,-13.65 13.6,-4.4 28.05,-6.6 14.1,-2.3 30,-3.35 15.15,-1.1 31.15,-0.75 l 28.1,1.95 26.95,3.95 q 14.6,2.35 23.45,8.1 8.85,5.75 14.7,7.3 5.85,1.55 9.6,-1.15 l 1.05,-20.2 z"
       fill="none"
       stroke="#ff9900"
       stroke-linecap="round"
       stroke-linejoin="round"
       stroke-width="2"
       id="path8" />
    <path
       d="m -160.55,-108.4 1,1.7 -0.4,0.3 -0.6,-2 M 77.1,-50.75 q 7.6,12.55 13.65,26.05 l 3.35,7.8 q 3.9,10.15 6.25,20.8 4.8,21.75 -1.1,43.2 -3.8,13.75 -11.1,25.75 -8.3,15.65 -21.6,27.6 -13.25,11.9 -28.95,20 -15.8,8.15 -33.15,12.2 -17.1,4.05 -34.8,3.9 -17.4,-0.15 -34.5,-3.55 -16.95,-3.45 -32.65,-10.4 -15.6,-6.9 -28.95,-17.65 -13.3,-10.85 -23.4,-24.85 -6.25,-8.7 -11.2,-18.4 -5.05,-12.25 -6.75,-25.65 -2.85,-22.35 3.2,-43.9 l 0.35,-1.3 q 5.45,-18.45 13.05,-36.25 -6.5,17.4 75.1,33.95 68.65,3.1 106.55,-3.95 36.85,-6.85 44.65,-23.3 2.6,-5.5 2,-12.05"
       fill="#ffffff"
       fill-opacity="0.501961"
       fill-rule="evenodd"
       stroke="none"
       id="path10" />
    <path
       d="m 77.35,-79.15 -0.3,1.85 q -0.7,3.65 -1.05,6.45 -1.85,13.85 0.85,19.7 l 0.25,0.4 q 0.6,6.55 -2,12.05 -7.8,16.45 -44.65,23.3 -37.9,7.05 -106.55,3.95 -81.6,-16.55 -75.1,-33.95 l 1.95,-4.6 1.15,-19.85 q 0.15,-5.8 -0.35,-9.8 7.05,41.4 95.95,40.6 96.85,1.8 128.2,-37.9 l 1.65,-2.2"
       fill="#b7b7b7"
       fill-opacity="0.4"
       fill-rule="evenodd"
       stroke="none"
       id="path12" />
    <path
       d="m 82.8,-104.85 0.2,0.1 q -3.75,15.55 -5.65,25.6 l -1.65,2.2 q -31.35,39.7 -128.2,37.9 -88.9,0.8 -95.95,-40.6 -0.25,-1.6 -0.1,8.85 -0.35,-0.15 -0.35,-3.05 0,-2.95 -5.5,-17.65 l -5.55,-14.9 0.4,-0.3 q 3.6,5.65 8.8,9.55 8.25,4.15 17.8,2.6 11.45,-3.3 21.2,-2.9 5,0.5 9.9,2.35 3.05,1 6.5,1.55 l 10.75,2.05 14.7,2.55 q 7.75,1.45 14.4,4.45 8.65,3.9 14.95,11.1 l 3.25,3.15 q 2.05,1.85 5.05,1.75 5.8,-0.15 11,-2.6 2.95,-1.45 5.4,-3.85 4.1,-4 8.4,-7.15 2.35,-1.6 5,-2.1 l 21,-1.4 17.1,-2 q 7.3,-0.6 14.35,1.4 2.75,0.8 5.1,2 4.45,2.4 9.3,2.45 3.95,0.1 7,-1.95 3.35,-2.2 3.7,-6.3 l 0.85,-6.2 q 0.2,-1.05 0.95,-2.15 2.6,-3.85 5.9,-6.5 m -220.8,7.35 -2.65,-0.45 q -4.8,-1 -6.5,-1.9 -2.15,-1.25 -7,-6.6 -4.85,-5.45 3.3,-10 14.7,-8.25 33.25,-8.9 5.7,-0.55 10.9,1.55 5,1.95 9.6,0.35 l 10.2,-3.3 q 11.3,-3.75 23.8,-4.2 18.15,-0.95 34.95,6.6 5.35,2.35 12.25,-1.5 24.75,-8.55 50.6,5.3 4.45,2.35 9.15,1.15 6.3,-1.75 12.65,-1.75 14.55,-0.05 22.3,11.15 -0.35,4.4 -4.45,7.05 -2.45,1.6 -3.35,3.85 l -0.35,1.3 q -0.2,1.05 -0.1,2.3 l 0.1,1.2 q 0.15,7.75 -7.7,8.65 -4.4,0.7 -8.55,-1.2 -9.9,-4.4 -21.2,-3.15 L 1.8,-87.6 1,-87.5 q -10.45,0.6 -17.45,8.35 -17.05,13.75 -27.1,-1.4 -11.05,-10.1 -44.15,-15.95 -16.8,-6.05 -30.15,-4.85 -12.55,4.8 -19.45,3.95 l -0.7,-0.1"
       fill="#ffffff"
       fill-opacity="0.701961"
       fill-rule="evenodd"
       stroke="none"
       id="path14" />
    <path
       d="m 83.3,-105.9 -0.5,1.05 q -3.3,2.65 -5.9,6.5 -0.75,1.1 -0.95,2.15 L 75.1,-90 q -0.35,4.1 -3.7,6.3 -3.05,2.05 -7,1.95 -4.85,-0.05 -9.3,-2.45 -2.35,-1.2 -5.1,-2 -7.05,-2 -14.35,-1.4 l -17.1,2 -21,1.4 q -2.65,0.5 -5,2.1 -4.3,3.15 -8.4,7.15 -2.45,2.4 -5.4,3.85 -5.2,2.45 -11,2.6 -3,0.1 -5.05,-1.75 l -3.25,-3.15 q -6.3,-7.2 -14.95,-11.1 -6.65,-3 -14.4,-4.45 l -14.7,-2.55 -10.75,-2.05 q -3.45,-0.55 -6.5,-1.55 -4.9,-1.85 -9.9,-2.35 -9.75,-0.4 -21.2,2.9 -9.55,1.55 -17.8,-2.6 -5.2,-3.9 -8.8,-9.55 l -1,-1.7 q -1.75,-5.5 3.25,-8.75 8.65,-5.85 18.5,-8.65 9.15,-2.75 18.7,-3.1 7.2,-0.35 14.05,2.5 l 2.45,0.6 q 1.95,-0.1 3.65,-0.7 6.25,-1.85 12.3,-4.05 9.4,-3.3 18.95,-4.4 10.2,-1.35 20.6,0.1 9.4,1.35 17.85,5.1 l 5.8,2.4 q 3.95,1.35 7.75,-0.45 9.55,-4.6 20.4,-5.3 10,-0.65 19.75,2.5 9.3,2.9 17.7,7.85 2.7,1.6 5.75,1.4 l 5.9,-1.2 q 10.4,-2.95 20.35,0.8 8.1,3.15 12.25,11 l -1.55,3.55 -0.55,1.3 M 71,-99.1 q 0.9,-2.25 3.35,-3.85 4.1,-2.65 4.45,-7.05 -7.75,-11.2 -22.3,-11.15 -6.35,0 -12.65,1.75 -4.7,1.2 -9.15,-1.15 -25.85,-13.85 -50.6,-5.3 -6.9,3.85 -12.25,1.5 -16.8,-7.55 -34.95,-6.6 -12.5,0.45 -23.8,4.2 l -10.2,3.3 q -4.6,1.6 -9.6,-0.35 -5.2,-2.1 -10.9,-1.55 -18.55,0.65 -33.25,8.9 -8.15,4.55 -3.3,10 4.85,5.35 7,6.6 1.7,0.9 6.5,1.9 l 2.65,0.45 0.7,0.1 q 6.9,0.85 19.45,-3.95 13.35,-1.2 30.15,4.85 33.1,5.85 44.15,15.95 10.05,15.15 27.1,1.4 7,-7.75 17.45,-8.35 l 0.8,-0.1 31.4,-2.4 q 11.3,-1.25 21.2,3.15 4.15,1.9 8.55,1.2 7.85,-0.9 7.7,-8.65 l -0.1,-1.2 q -0.1,-1.25 0.1,-2.3 L 71,-99.1"
       fill="#ffffff"
       fill-rule="evenodd"
       stroke="none"
       id="path16" />
    <path
       d="m 83,-104.75 v -0.05 l 0.3,-1.1 0.55,-1.3 m -234.6,10.05 q 8.25,4.15 17.8,2.6 m -5.05,-2.95 0.7,0.1 q 6.9,0.85 19.45,-3.95 13.35,-1.2 30.15,4.85 33.1,5.85 44.15,15.95 10.05,15.15 27.1,1.4 7,-7.75 17.45,-8.35 l 0.8,-0.1 m 75.55,8.45 -0.3,1.85 q -0.7,3.65 -1.05,6.45 -1.85,13.85 0.85,19.7 l 0.25,0.4 q 7.6,12.55 13.65,26.05 l 3.35,7.8 m -243.35,-33.1 1.15,-19.85 m -0.45,-0.95 q -0.35,-0.15 -0.35,-3.05 0,-2.95 -5.5,-17.65 l -5.55,-14.9 -0.6,-2 m 237.9,29.25 q 1.9,-10.05 5.65,-25.6"
       fill="none"
       stroke="#ffcc00"
       stroke-linecap="round"
       stroke-linejoin="round"
       stroke-width="3"
       id="path18" />
    <path
       d="m 71,-99.1 q 0.9,-2.25 3.35,-3.85 4.1,-2.65 4.45,-7.05 -7.75,-11.2 -22.3,-11.15 -6.35,0 -12.65,1.75 -4.7,1.2 -9.15,-1.15 -25.85,-13.85 -50.6,-5.3 -6.9,3.85 -12.25,1.5 -16.8,-7.55 -34.95,-6.6 -12.5,0.45 -23.8,4.2 l -10.2,3.3 q -4.6,1.6 -9.6,-0.35 -5.2,-2.1 -10.9,-1.55 -18.55,0.65 -33.25,8.9 -8.15,4.55 -3.3,10 4.85,5.35 7,6.6 1.7,0.9 6.5,1.9 l 2.65,0.45 M 1.8,-87.6 33.2,-90 q 11.3,-1.25 21.2,3.15 4.15,1.9 8.55,1.2 7.85,-0.9 7.7,-8.65 l -0.1,-1.2 q -0.1,-1.25 0.1,-2.3"
       fill="none"
       stroke="#ffcc00"
       stroke-linecap="butt"
       stroke-linejoin="miter-clip"
       stroke-miterlimit="3"
       stroke-width="3"
       id="path20" />
    <path
       d="m 83.3,-105.9 -0.5,1.05 m -243.35,-3.55 1,1.7"
       fill="none"
       stroke="#ffcc00"
       stroke-linecap="round"
       stroke-linejoin="miter-clip"
       stroke-miterlimit="3"
       stroke-width="3"
       id="path22" />
    <path
       d="m 83.85,-107.2 1.55,-3.55 q -4.15,-7.85 -12.25,-11 -9.95,-3.75 -20.35,-0.8 l -5.9,1.2 q -3.05,0.2 -5.75,-1.4 -8.4,-4.95 -17.7,-7.85 -9.75,-3.15 -19.75,-2.5 -10.85,0.7 -20.4,5.3 -3.8,1.8 -7.75,0.45 l -5.8,-2.4 q -8.45,-3.75 -17.85,-5.1 -10.4,-1.45 -20.6,-0.1 -9.55,1.1 -18.95,4.4 -6.05,2.2 -12.3,4.05 -1.7,0.6 -3.65,0.7 l -2.45,-0.6 q -6.85,-2.85 -14.05,-2.5 -9.55,0.35 -18.7,3.1 -9.85,2.8 -18.5,8.65 -5,3.25 -3.25,8.75 m 27.6,13.85 q 11.45,-3.3 21.2,-2.9 5,0.5 9.9,2.35 3.05,1 6.5,1.55 l 10.75,2.05 14.7,2.55 q 7.75,1.45 14.4,4.45 8.65,3.9 14.95,11.1 l 3.25,3.15 q 2.05,1.85 5.05,1.75 5.8,-0.15 11,-2.6 2.95,-1.45 5.4,-3.85 4.1,-4 8.4,-7.15 2.35,-1.6 5,-2.1 l 21,-1.4 17.1,-2 q 7.3,-0.6 14.35,1.4 2.75,0.8 5.1,2 4.45,2.4 9.3,2.45 3.95,0.1 7,-1.95 3.35,-2.2 3.7,-6.3 l 0.85,-6.2 q 0.2,-1.05 0.95,-2.15 2.6,-3.85 5.9,-6.5 m 11.3,87.95 q 3.9,10.15 6.25,20.8 4.8,21.75 -1.1,43.2 -3.8,13.75 -11.1,25.75 -8.3,15.65 -21.6,27.6 -13.25,11.9 -28.95,20 -15.8,8.15 -33.15,12.2 -17.1,4.05 -34.8,3.9 -17.4,-0.15 -34.5,-3.55 -16.95,-3.45 -32.65,-10.4 -15.6,-6.9 -28.95,-17.65 -13.3,-10.85 -23.4,-24.85 -6.25,-8.7 -11.2,-18.4 -5.05,-12.25 -6.75,-25.65 -2.85,-22.35 3.2,-43.9 l 0.35,-1.3 q 5.45,-18.45 13.05,-36.25"
       fill="none"
       stroke="#ffcc00"
       stroke-linecap="butt"
       stroke-linejoin="miter-clip"
       stroke-miterlimit="3"
       stroke-width="3"
       id="path24" />
    <path
       d="m -159.55,-106.7 q 3.6,5.65 8.8,9.55 m -0.45,51.75 1.95,-4.6"
       fill="none"
       stroke="#ffcc00"
       stroke-linecap="round"
       stroke-linejoin="miter-clip"
       stroke-miterlimit="3"
       stroke-width="3"
       id="path26" />
    <path
       d="m -149.35,-61 q 33.85,18.35 90.8,21.4 57.45,5.4 117.65,-12.35 10.7,-4.2 15.3,-9.4 l 0.6,6.5 q -22.7,19.9 -65.55,26.7 -49.7,10.1 -110.85,-3.2 -33.4,-6.9 -47.55,-22.65 l -0.4,-7"
       fill="#33cc00"
       fill-rule="evenodd"
       stroke="none"
       id="path28" />
    <path
       d="m 74.4,-61.35 q -4.6,5.2 -15.3,9.4 -60.2,17.75 -117.65,12.35 -56.95,-3.05 -90.8,-21.4 -0.45,-4.95 0.85,-11.5 -0.1,3.8 18.5,11.65 19.8,8.35 54.35,11.9 21.6,2.4 43.25,1.65 22.6,-0.65 45.2,-2.85 16,-1.85 31.1,-6.45 11.05,-3.35 17.65,-6.75 6.55,-3.4 9.2,-6.6 2.8,-2.9 6.2,-7.3 l -2.55,15.9 M -148.95,-54 q 14.15,15.75 47.55,22.65 61.15,13.3 110.85,3.2 42.85,-6.8 65.55,-26.7 0.35,2.8 0.85,5.5 -4.55,3.6 -9.45,6.75 -19.4,12.3 -36.7,15.75 -17.3,3.45 -39.3,7.1 -22.05,3.6 -55.95,0.25 -23.6,-3.3 -43.05,-8 -19.5,-4.75 -29.15,-10.85 -9.65,-6.1 -11.55,-7.1 0.45,-3.55 0.35,-8.55"
       fill="#2ba800"
       fill-rule="evenodd"
       stroke="none"
       id="path30" />
    <path
       d="m 74.4,-61.35 2.55,-15.9 q -3.4,4.4 -6.2,7.3 -2.65,3.2 -9.2,6.6 -6.6,3.4 -17.65,6.75 -15.1,4.6 -31.1,6.45 -22.6,2.2 -45.2,2.85 -21.65,0.75 -43.25,-1.65 -34.55,-3.55 -54.35,-11.9 -18.6,-7.85 -18.5,-11.65 -1.3,6.55 -0.85,11.5 l 0.4,7 q 0.1,5 -0.35,8.55 1.9,1 11.55,7.1 9.65,6.1 29.15,10.85 19.45,4.7 43.05,8 33.9,3.35 55.95,-0.25 22,-3.65 39.3,-7.1 17.3,-3.45 36.7,-15.75 4.9,-3.15 9.45,-6.75 -0.5,-2.7 -0.85,-5.5 l -0.6,-6.5"
       fill="none"
       stroke="#336600"
       stroke-linecap="round"
       stroke-linejoin="miter-clip"
       stroke-miterlimit="3"
       stroke-width="3"
       id="path32" />
    <path
       d="m -20.25,-10.5 -0.05,-0.1 0.55,-0.15 -0.5,0.25"
       fill="#ffffff"
       fill-rule="evenodd"
       stroke="none"
       id="path34" />
    <path
       d="M 23.4,-13.15 Q 54.8,-17.25 74.1,-37.9 97.8,-2.15 93.3,42.8 85,77.4 57.85,98.9 85.15,56.25 80.5,29.5 74.55,-5.9 23.4,-13.15 M -150.55,-30.2 q 59.65,34 124.8,20.9 -58.4,29.8 -124.9,17.2 l -2.1,5.9 q -3.45,24.05 10.45,66.45 -23.55,-31.05 -21.8,-68.5 l -0.1,-0.05 v -0.35 q -1.35,-23.4 13.5,-41.35 l -0.95,-1.05 1.1,0.85"
       fill="#ffffff"
       fill-opacity="0.501961"
       fill-rule="evenodd"
       stroke="none"
       id="path36" />
    <path
       d="M -1.25,41.8 Q 9.1,21.15 24.5,9.7 47.9,-7.8 38.05,-40.6 l 20.25,7.65 Q 61.75,-18.35 60,-5.1 51.6,7.25 31.7,15.05 11,24.9 -1.25,41.8"
       fill="#339900"
       fill-rule="evenodd"
       stroke="none"
       id="path38" />
    <path
       d="M 60,-5.1 Q 58.35,7.2 52.25,18.4 37.1,43.15 37.75,82.45 25.9,37.5 -10.75,65.9 -6.7,52.6 -1.25,41.8 11,24.9 31.7,15.05 51.6,7.25 60,-5.1"
       fill="#33cc00"
       fill-rule="evenodd"
       stroke="none"
       id="path40" />
    <path
       d="M -1.25,41.8 Q 9.1,21.15 24.5,9.7 47.9,-7.8 38.05,-40.6 l 20.25,7.65 Q 61.75,-18.35 60,-5.1 58.35,7.2 52.25,18.4 37.1,43.15 37.75,82.45 25.9,37.5 -10.75,65.9 -6.7,52.6 -1.25,41.8 Z"
       fill="none"
       stroke="#336600"
       stroke-linecap="round"
       stroke-linejoin="round"
       stroke-width="3"
       id="path42" />
    <path
       d="M 92.05,-9.35 92,-9.3 q -7.55,-4.8 -16.45,-0.55 -9.45,-3.9 -14.75,4.7 -13.85,-10.5 -40.15,-13 l 38.5,-17.2 q 15.8,5.15 32.9,26"
       fill="#339900"
       fill-rule="evenodd"
       stroke="none"
       id="path44" />
    <path
       d="m 60.8,-5.15 q 5.3,-8.6 14.75,-4.7 8.9,-4.25 16.45,0.55 l 0.05,-0.05 0.05,0.1 Q 108.55,13.3 129.3,21.9 98.8,17.2 116.7,54.7 88.45,37.05 70.65,5.7 66.95,-0.55 60.8,-5.15"
       fill="#33cc00"
       fill-rule="evenodd"
       stroke="none"
       id="path46" />
    <path
       d="m 92.05,-9.35 q -17.1,-20.85 -32.9,-26 l -38.5,17.2 q 26.3,2.5 40.15,13 6.15,4.6 9.85,10.85 17.8,31.35 46.05,49 Q 98.8,17.2 129.3,21.9 108.55,13.3 92.1,-9.25 Z"
       fill="none"
       stroke="#336600"
       stroke-linecap="round"
       stroke-linejoin="round"
       stroke-width="3"
       id="path48" />
    <path
       d="m 75.3,-45.95 -0.05,-0.2 h 0.05 v 0.2"
       fill="#ffffff"
       fill-rule="evenodd"
       stroke="none"
       id="path50" />
    <path
       d="M 47,-10.4 H 46.95 47 m -4.75,-35.9 h 0.25 v 0.1 l -0.25,-0.1"
       fill="#ff0000"
       fill-rule="evenodd"
       stroke="none"
       id="path52" />
    <path
       d="m 42.5,-46.2 -0.15,0.35 -0.1,-0.45 0.25,0.1"
       fill="#0099ff"
       fill-rule="evenodd"
       stroke="none"
       id="path54" />
    <path
       d="m 42.5,-46.3 h 0.2 l 0.45,-0.05 q -1.2,-0.3 6.9,-3.95 8.55,-3.9 20.8,-4.15 -0.35,-0.05 0.9,-2.2 9.7,-15.4 16.4,-15.25 l 0.5,0.05 q 15.9,17.05 7.35,40.95 -4.95,7.1 -9.95,5.75 l -1.05,0.1 q -7.15,0.65 -9.6,-3.45 l -3.4,1.8 q -7.4,8.85 -19.35,11 -2.35,-2.4 -3.25,-7.95 L 49.25,-25.6 48.9,-25.65 Q 44.15,-7.85 20,12.8 -2.05,27.35 -14.25,-3.1 q -5.5,-16.4 -3.35,-33.95 2.35,-5.55 59.85,-9.25 l 0.1,0.45 0.15,-0.35 v -0.1 m -60.1,9.25 q 4.8,11.55 31.25,2.75 26.4,-8.85 28.7,-11.55 -2.3,2.7 -28.7,11.55 -26.45,8.8 -31.25,-2.75 m 88.55,-17.4 h -0.1 l 0.05,0.05 0.05,-0.05 m 4.35,8.5 q 1.85,5.65 1.3,12.25 l -0.05,0.45 q -0.25,2.2 -1.15,4.75 0.9,-2.55 1.15,-4.75 l 0.05,-0.45 q 0.55,-6.6 -1.3,-12.25 v -0.2 h -0.05 l 0.05,0.2 m -4.4,-8.45 q 3.85,4.55 4.4,8.25 -0.55,-3.7 -4.4,-8.25 m -28.2,8.1 q 3.3,1.9 5.5,13.8 l 1.05,6.9 -1.05,-6.9 Q 46,-44.4 42.7,-46.3 m 29.05,-10.35 q 19.85,-8.5 16.4,-15.25 3.45,6.75 -16.4,15.25"
       fill="#33cc00"
       fill-rule="evenodd"
       stroke="none"
       id="path56" />
    <path
       d="m 96,-30.9 q -1.2,3.4 -2.9,6.95 -7.95,3.65 -13.3,5.6 -5.35,1.95 -10.15,0.35 v -0.1 H 69.6 l -0.1,0.05 -22.3,7.7 -0.15,-0.1 q 0.55,-0.5 1.9,-5.05 0.8,-2.95 0.45,-8.15 0.35,5.2 -0.45,8.15 -1.35,4.55 -1.9,5.05 V -10.5 L 47,-10.4 H 46.95 Q 35.25,4.25 21.55,13.55 l -9.05,5.4 q -5.75,3 -11.85,5.2 Q -9.6,10.9 -14.25,-3.1 -2.05,27.35 20,12.8 44.15,-7.85 48.9,-25.65 l 0.35,0.05 0.15,1.95 q 0.9,5.55 3.25,7.95 11.95,-2.15 19.35,-11 l 3.4,-1.8 q -1.7,4.6 -5.75,10.4 4.05,-5.8 5.75,-10.4 2.45,4.1 9.6,3.45 l 1.05,-0.1 q 5,1.35 9.95,-5.75"
       fill="#339900"
       fill-rule="evenodd"
       stroke="none"
       id="path58" />
    <path
       d="m 42.5,-46.3 h 0.2 l 0.45,-0.05 q -1.2,-0.3 6.9,-3.95 8.55,-3.9 20.8,-4.15 -0.35,-0.05 0.9,-2.2 19.85,-8.5 16.4,-15.25 l 0.5,0.05 q 15.9,17.05 7.35,40.95 -1.2,3.4 -2.9,6.95 -7.95,3.65 -13.3,5.6 -5.35,1.95 -10.15,0.35 l -0.15,-0.05 m -22.3,7.7 -0.15,-0.1 L 47,-10.4 H 46.95 M 0.65,24.15 Q -9.6,10.9 -14.25,-3.1 q -5.5,-16.4 -3.35,-33.95 2.35,-5.55 59.85,-9.25 h 0.25 v 0.1 l -0.15,0.35 q -2.3,2.7 -28.7,11.55 -26.45,8.8 -31.25,-2.75 m 88.55,-17.4 h -0.1 l 0.05,0.05 q 3.85,4.55 4.4,8.25 v 0.2 l -0.05,-0.2 h 0.05 m 0.1,17.65 q 0.9,-2.55 1.15,-4.75 l 0.05,-0.45 q 0.55,-6.6 -1.3,-12.25 M 49.25,-25.6 48.2,-32.5 Q 46,-44.4 42.7,-46.3 m 6.7,22.65 q 0.35,5.2 -0.45,8.15 -1.35,4.55 -1.9,5.05 v -0.05 m 22.6,-7.6 q 4.05,-5.8 5.75,-10.4 m -26.15,2.9 0.15,1.95"
       fill="none"
       stroke="#336600"
       stroke-linecap="round"
       stroke-linejoin="round"
       stroke-width="3"
       id="path60" />
    <path
       d="m 71.75,-56.65 q 9.7,-15.4 16.4,-15.25 m -18.65,53.85 -22.3,7.7 M 46.95,-10.4 Q 35.25,4.25 21.55,13.55 l -9.05,5.4 q -5.75,3 -11.85,5.2 m 68.85,-42.2 0.1,-0.05 h 0.05"
       fill="none"
       stroke="#336600"
       stroke-linecap="round"
       stroke-linejoin="round"
       stroke-width="3"
       id="path62" />
  </g>
</svg>
